<svg xmlns="http://www.w3.org/2000/svg" width="44.698" height="37.985" viewBox="0 0 44.698 37.985">
  <g id="iconsvg30526" transform="translate(-10.218 -4.417) rotate(-16)">
    <path id="パス_86" data-name="パス 86" d="M43.448,35.284a1.8,1.8,0,0,0-.962-1.249,11.269,11.269,0,0,0-3.847-.559,16.5,16.5,0,0,1-6.416-1.715,1.6,1.6,0,0,0-1.266-.016,14.354,14.354,0,0,0-1.847,1.194.663.663,0,0,1-.792-1.064c.478-.355.91-.647,1.3-.889a.426.426,0,0,0,.037-.765c-.063-.049-.126-.1-.186-.148a1.05,1.05,0,0,0-1.137-.113c-.345.215-.735.479-1.176.806a.663.663,0,0,1-.792-1.065c.407-.3.781-.559,1.125-.778.329-.208.574-.412.541-.474-.02-.038-.039-.075-.058-.113-.112-.234-.222-.508-.332-.814a.544.544,0,0,0-.828-.312c-.334.209-.71.464-1.131.778a.664.664,0,0,1-.792-1.065,17.439,17.439,0,0,1,1.55-1.038.989.989,0,0,0,.45-1.023c-.027-.118-.055-.236-.082-.355a.534.534,0,0,0-.789-.389,14.319,14.319,0,0,0-1.852,1.2.663.663,0,0,1-.791-1.064,14.528,14.528,0,0,1,2.361-1.474.932.932,0,0,0,.517-.965c-.232-1.244-.415-2.368-.529-3.1a.826.826,0,0,0-1-.711,4.467,4.467,0,0,0-1.967,1.072,2.556,2.556,0,0,0-.536,1.584v1.05a18.951,18.951,0,0,1-5.36.442l-3.814-.055A8.635,8.635,0,0,0,11.9,17.622a.946.946,0,0,0-1.267-.274l-1.351.8a.835.835,0,0,0-.26,1.177,7.687,7.687,0,0,1,.456,6.273A15.78,15.78,0,0,1,7.21,29.971c2.915.923,9.412,3.647,9.412,9.549H15.3c0-5.2-6.392-7.644-8.823-8.384a5.34,5.34,0,0,0-.757,3.3A24.017,24.017,0,0,0,6.453,39.3l-.058,2.752a.828.828,0,0,0,.6.792,15.584,15.584,0,0,0,5.019.4.768.768,0,0,0,.628-.746v-.126a.666.666,0,0,1,.636-.662l.624-.025a.606.606,0,0,1,.636.612v.384a.826.826,0,0,0,.619.785,8.834,8.834,0,0,0,3.237-.008.82.82,0,0,0,.621-.778v-.107a.491.491,0,0,1,.622-.5,13.987,13.987,0,0,1,3.38,1.191,1.208,1.208,0,0,1,.531.949.811.811,0,0,0,.62.745,11.5,11.5,0,0,0,3.1.346c.35-.042.589-.5.589-.852v-.329a.636.636,0,0,1,.637-.636h.219a.636.636,0,0,1,.637.636v.567a.914.914,0,0,0,.6.841,6.063,6.063,0,0,0,3.218,0,.924.924,0,0,0,.6-.845v-.455a.666.666,0,0,1,.636-.661l.22-.008a.608.608,0,0,1,.636.613v.108a.549.549,0,0,0,.633.564,6.613,6.613,0,0,0,2.219-.721,1.194,1.194,0,0,0,.519-.92.838.838,0,0,1,.613-.727l.709-.2a.455.455,0,0,1,.613.462v.053a.505.505,0,0,0,.626.522c.908-.213,2.51-.778,2.745-2.152A23.008,23.008,0,0,0,43.448,35.284Z" transform="translate(0)" fill="#a0a0a0"/>
  </g>
</svg>
