<svg xmlns="http://www.w3.org/2000/svg" width="51.6" height="38.3" viewBox="0 0 51.6 38.3">
  <path id="パス_74" data-name="パス 74" d="M35.9.3c.3.4.7.8,1,1.2a8.9,8.9,0,0,1,1.5,5,7.9,7.9,0,0,1-.9,3.8,12.066,12.066,0,0,1-2.1,2.8c-.8.8-2.2,2.1-4.3,3.9a18.373,18.373,0,0,0-1.4,1.4c-.3.4-.6.8-.8,1.1a4.179,4.179,0,0,0-.4,1c-.1.3-.2.9-.4,1.7a2.8,2.8,0,0,1-3,2.6,2.94,2.94,0,0,1-2.2-.9,3.328,3.328,0,0,1-.9-2.5,8.729,8.729,0,0,1,.7-3.7A9.482,9.482,0,0,1,24.4,15c.7-.8,1.7-1.7,2.9-2.8a30.159,30.159,0,0,0,2.3-2.1,6.1,6.1,0,0,0,1.2-1.6,4.136,4.136,0,0,0,.5-1.9,4.478,4.478,0,0,0-1.5-3.4,5.637,5.637,0,0,0-3.9-1.4,5.643,5.643,0,0,0-4.1,1.4,10.478,10.478,0,0,0-2.2,4.1c-.6,1.9-1.7,2.8-3.3,2.8a3.25,3.25,0,0,1-2.4-1,3.416,3.416,0,0,1-1-2.2A9.588,9.588,0,0,1,14.4,2,9.1,9.1,0,0,1,16.2-.1C6.9,2.9,0,10,0,18.4,0,29.3,11.6,38.2,25.8,38.2s25.8-8.8,25.8-19.8C51.6,10.3,45.2,3.3,35.9.3ZM28.1,33.6a3.7,3.7,0,0,1-2.6,1,3.942,3.942,0,0,1-2.7-1,3.421,3.421,0,0,1-1.1-2.8,3.864,3.864,0,0,1,1.1-2.7A3.693,3.693,0,0,1,25.5,27a3.864,3.864,0,0,1,2.7,1.1,3.693,3.693,0,0,1,1.1,2.7A3.489,3.489,0,0,1,28.1,33.6Z" transform="translate(0 0.1)" fill="#585858"/>
</svg>
