<svg xmlns="http://www.w3.org/2000/svg" width="31.016" height="30.598" viewBox="0 0 31.016 30.598">
  <path id="パス_75" data-name="パス 75" d="M78.131,7456.617a9.361,9.361,0,0,1-18.722,0,7.947,7.947,0,0,1,.14-1.816H53.262V7467.1a4.711,4.711,0,0,0,4.75,4.751h21.1a4.712,4.712,0,0,0,4.75-4.751V7454.8H77.572A2.2,2.2,0,0,1,78.131,7456.617Zm1.257-15.369h-21.1a4.712,4.712,0,0,0-4.75,4.751v5.169h7.824a9.231,9.231,0,0,1,15.089,0h7.824V7446A4.923,4.923,0,0,0,79.388,7441.248Zm2.375,5.868a.9.9,0,0,1-.838.838H78.41a.9.9,0,0,1-.838-.838V7444.6a.9.9,0,0,1,.838-.838h2.515a.9.9,0,0,1,.838.838Zm-7.265,9.5a5.728,5.728,0,1,0-5.728,5.728A5.847,5.847,0,0,0,74.5,7456.617Z" transform="translate(-53.262 -7441.248)" fill="#585858"/>
</svg>
