<svg xmlns="http://www.w3.org/2000/svg" width="53.493" height="38.212" viewBox="0 0 53.493 38.212">
  <path id="パス_63" data-name="パス 63" d="M249.016,2601.587c-1.847-1.769-12.474-7.914-27.01-1.652v34.35h22.025a10.316,10.316,0,0,0,9.318,0H275.5v-34.35C261.562,2593.791,250.425,2600.292,249.016,2601.587Zm-1.972,30.561c0-1.176-10.338-8.056-22.277-.549v-29.132a18.46,18.46,0,0,1,9.054-2.186c7.307,0,13.223,2.4,13.223,6.844Zm25.866-.549c-11.94-7.507-22.271-.627-22.271.549v-25.02c0-4.447,5.916-6.843,13.216-6.843a18.467,18.467,0,0,1,9.055,2.186Z" transform="translate(-222.006 -2597.185)" fill="#585858"/>
</svg>
