<svg xmlns="http://www.w3.org/2000/svg" width="61.3" height="53.6" viewBox="0 0 61.3 53.6">
  <path id="パス_70" data-name="パス 70" d="M25,35.8l1.4,3.6a21.178,21.178,0,0,1-4.1,1.2l-.8-3.7A23.548,23.548,0,0,0,25,35.8ZM13.6,40.4A16.115,16.115,0,0,0,18,41l.1-3.8a12.7,12.7,0,0,1-3.4-.5Zm30.2-6.7A12.129,12.129,0,0,1,47,34.8l1.8-3.4a16.234,16.234,0,0,0-4.2-1.5Zm-8-3.1,1.1,3.7a14.711,14.711,0,0,1,3.4-.7L40,29.8A12.971,12.971,0,0,0,35.8,30.6Zm-6.2,2.8a8.265,8.265,0,0,1-1.3.7l1.9,3.3c.5-.3.9-.5,1.4-.8.7-.4,1.3-.8,1.9-1.1l-1.7-3.4A15.916,15.916,0,0,1,29.6,33.4ZM40.2,9.6a10.074,10.074,0,0,1-1,4.3L30.7,30.6,22.1,13.7a9.455,9.455,0,0,1-.9-4.1A9.6,9.6,0,0,1,30.8,0,9.434,9.434,0,0,1,40.2,9.6Zm-3.8,0a5.7,5.7,0,0,0-5.7-5.7A5.763,5.763,0,0,0,25,9.6a5.7,5.7,0,0,0,11.4,0Zm13.4,9.6h-9l-2,3.8H47l4.1,12.4-1.3,1.5a13.788,13.788,0,0,1,2.1,2.4l.4-.2L56,49.8H5.3L9.1,38.3a1.38,1.38,0,0,0,.4.3l2-3.2c-.5-.3-.8-.6-1.2-.8l4-11.6h8.2c-.8-1.6-1.5-2.8-2-3.8h-9L0,53.6H61.3Z" fill="#585858"/>
</svg>
