<svg xmlns="http://www.w3.org/2000/svg" width="28.784" height="48.624" viewBox="0 0 28.784 48.624">
  <g id="グループ_93" data-name="グループ 93" transform="translate(-954.691 -2591.979)">
    <path id="パス_71" data-name="パス 71" d="M983.231,2621.244a5.416,5.416,0,0,0-.717-.531,6.794,6.794,0,0,0-1.185-.629,11.134,11.134,0,0,0-1.571-.459,10.613,10.613,0,0,0-1.85-.143,9.756,9.756,0,0,0-1.978.24,11.431,11.431,0,0,0-1.953.636,13.384,13.384,0,0,0-1.8,1,12.4,12.4,0,0,0-1.56,1.289,10.084,10.084,0,0,0-1.266,1.5,10.481,10.481,0,0,0-1.532,3.245,11.031,11.031,0,0,0-.231,1.156c-.042.569-.087,1.158-.131,1.764,0,.13,0,.262.011.377.135-.156.283-.327.44-.51a31.8,31.8,0,0,1,3.155-3.071c.612-.512,1.262-.982,1.876-1.405.324-.191.632-.379.93-.557l.856-.44c.276-.112.533-.213.758-.305a4.409,4.409,0,0,1,.6-.188c.331-.094.524-.146.524-.146s-.185.068-.51.184a4.064,4.064,0,0,0-.575.237l-.722.357c-.253.155-.519.324-.811.5-.27.2-.559.4-.86.618a21.645,21.645,0,0,0-1.729,1.52,30.385,30.385,0,0,0-2.833,3.231c-.2.263-.372.5-.525.708a6.579,6.579,0,0,0,.722-.015c.348-.025.792-.03,1.238-.085s.937-.115,1.431-.211,1-.216,1.516-.352a15.624,15.624,0,0,0,1.511-.5,14.784,14.784,0,0,0,1.438-.663,14.27,14.27,0,0,0,1.337-.8,13.383,13.383,0,0,0,2.293-1.944,14.347,14.347,0,0,0,.966-1.109c.3-.362.592-.777.867-1.155s.54-.746.785-1.119.483-.714.672-.989.361-.557.477-.722c.121-.19.183-.294.183-.294A3.188,3.188,0,0,0,983.231,2621.244Z" fill="#585858"/>
    <path id="パス_72" data-name="パス 72" d="M967.518,2628.916c.016-.113.052-.249.072-.366.172-2.191.356-4.023.532-4.837.294-1.367.552-2.6.716-3.662a4.052,4.052,0,0,0,3.814-4.037,5.174,5.174,0,0,0-.071-.837,5.919,5.919,0,0,0,.39.461,7.439,7.439,0,1,0,5.8-13.7c-.181,0-.369.02-.559.039.1-.089.225-.178.315-.268a4.066,4.066,0,0,0-5.748-5.752,4.475,4.475,0,0,0-.354.43c.007-.113.018-.234.018-.342a7.425,7.425,0,1,0-13.741,5.627,6.274,6.274,0,0,0,.613.514,4.48,4.48,0,0,0-.511-.033,7.495,7.495,0,0,0,5.719,13.855v.009a4.062,4.062,0,0,0,3.019,3.912c-.158,1.008-.406,2.192-.689,3.516-.361,1.687-.759,3.555-1.017,5.408-.009-.03-.009-.054-.017-.086a7.6,7.6,0,0,0-1.09-2.3,6.97,6.97,0,0,0-.9-1.065,9.07,9.07,0,0,0-1.109-.914,9.7,9.7,0,0,0-1.277-.712,8.455,8.455,0,0,0-1.39-.455,7.016,7.016,0,0,0-1.4-.167,7.245,7.245,0,0,0-1.316.1,7.75,7.75,0,0,0-1.121.328,4.933,4.933,0,0,0-.839.449,3.628,3.628,0,0,0-.509.376c-.113.094-.174.155-.174.155l.129.207c.084.117.2.326.341.514s.294.43.477.7.361.533.556.8.4.562.616.82a9.846,9.846,0,0,0,.688.787,10.036,10.036,0,0,0,2.576,1.951,10.011,10.011,0,0,0,1.022.472c.355.131.709.259,1.072.355s.721.188,1.08.251.7.115,1.016.148.631.045.878.062c.165.014.3.011.421.011-.024.576-.019,8.139.016,8.971h1.3c.084-2.138.307-6.48.573-10.286,0-.036,0-.071,0-.109A9.63,9.63,0,0,1,967.518,2628.916Zm-2.4-22.915a3.547,3.547,0,1,1,3.548,3.548A3.552,3.552,0,0,1,965.119,2606Zm.451,25.511c-.087-.122-.179-.244-.289-.387a20.392,20.392,0,0,0-2.012-2.3,14.3,14.3,0,0,0-1.226-1.081c-.214-.152-.42-.3-.611-.439-.207-.123-.4-.244-.578-.353l-.51-.256c-.152-.082-.3-.117-.409-.167-.228-.084-.362-.131-.362-.131s.135.037.371.1a2.714,2.714,0,0,1,.423.135c.161.065.342.134.539.216.188.1.4.2.611.312.209.129.427.258.658.4a16.415,16.415,0,0,1,1.337.995,21.564,21.564,0,0,1,2.119,2.058C965.607,2630.92,965.582,2631.218,965.57,2631.512Z" fill="#585858"/>
  </g>
</svg>
