<svg xmlns="http://www.w3.org/2000/svg" width="43.599" height="43.6" viewBox="0 0 43.599 43.6">
  <path id="パス_67" data-name="パス 67" d="M801.692,2629.916h-8.175l-5.45,8.175-5.45-8.175h-8.174a8.176,8.176,0,0,1-8.175-8.175v-19.075a8.174,8.174,0,0,1,8.175-8.175h27.249a8.175,8.175,0,0,1,8.175,8.175v19.075A8.176,8.176,0,0,1,801.692,2629.916Zm-27.249-8.175h13.624v-2.725H774.443Zm27.249-19.075H774.443v2.725h27.249Zm0,5.45H774.443v2.725h27.249Zm0,5.45H774.443v2.725h27.249Z" transform="translate(-766.268 -2594.491)" fill="#585858"/>
</svg>
