<svg xmlns="http://www.w3.org/2000/svg" width="44.839" height="47.995" viewBox="0 0 44.839 47.995">
  <path id="パス_69" data-name="パス 69" d="M27.948,25.338A16.5,16.5,0,0,0,34.8,12.384a12.381,12.381,0,1,0-24.761,0,16.478,16.478,0,0,0,6.85,12.954C7.188,27.8,0,36.22,0,42.461c0,7.378,44.839,7.378,44.839,0C44.839,36.22,37.647,27.8,27.948,25.338ZM22.415,47.989,16.136,41.71l5.285-12.781h-.055l-2.055-2.355a9.173,9.173,0,0,0,3.1.574,9.08,9.08,0,0,0,3.1-.571l-2.048,2.352h-.056L28.693,41.71Z" fill="#585858"/>
</svg>
