<svg id="グループ_141" data-name="グループ 141" xmlns="http://www.w3.org/2000/svg" width="43.6" height="43.601" viewBox="0 0 43.6 43.601">
  <path id="パス_90" data-name="パス 90" d="M86.63,12.827a7.873,7.873,0,0,0-5.776-2.4H53.6A8.189,8.189,0,0,0,45.429,18.6v27.25A8.189,8.189,0,0,0,53.6,54.029h27.25a8.19,8.19,0,0,0,8.175-8.175V18.6A7.875,7.875,0,0,0,86.63,12.827Zm-15.456,3.9h1.9v7.721a4.277,4.277,0,0,0,.028.738q.028.454.454.454.568,0,1.192-.88V16.73h1.9v10.5h-1.9V26.1a3.172,3.172,0,0,1-2.186,1.278,1.2,1.2,0,0,1-1.221-.766,5.3,5.3,0,0,1-.17-1.561V16.73Zm-7.181,3.406a4.2,4.2,0,0,1,.6-2.469A2.548,2.548,0,0,1,66.8,16.588a2.642,2.642,0,0,1,2.214,1.079,4.2,4.2,0,0,1,.6,2.469v3.69a4.048,4.048,0,0,1-.6,2.469A2.64,2.64,0,0,1,66.8,27.375,2.548,2.548,0,0,1,64.59,26.3a4.2,4.2,0,0,1-.6-2.469Zm-5.11-7.011,1.5,5.535,1.448-5.535h2.129l-2.555,8.4h0v5.705h-2.1V21.527A38.978,38.978,0,0,0,58,17.043l-.653-1.959-.681-1.959Zm23.39,34.261a3.987,3.987,0,0,1-1.207,2.072,3.72,3.72,0,0,1-2.142.994q-3.889.425-11.695.426t-11.695-.426a3.725,3.725,0,0,1-2.143-.994,3.99,3.99,0,0,1-1.206-2.072,34.794,34.794,0,0,1-.568-7.381,35.529,35.529,0,0,1,.568-7.38,3.923,3.923,0,0,1,1.206-2.087,3.788,3.788,0,0,1,2.172-.979,116.2,116.2,0,0,1,11.666-.426,116.707,116.707,0,0,1,11.695.426,3.829,3.829,0,0,1,2.157.979A3.882,3.882,0,0,1,82.3,32.626a36.363,36.363,0,0,1,.539,7.38A34.8,34.8,0,0,1,82.274,47.387Z" transform="translate(-45.429 -10.429)" fill="#fff"/>
  <path id="パス_91" data-name="パス 91" d="M69.87,76.535h2.214V88.542h2.1V76.535h2.271V74.548H69.87Z" transform="translate(-61.355 -52.209)" fill="#fff"/>
  <path id="パス_92" data-name="パス 92" d="M93.107,92.76q-.625.88-1.192.88-.4,0-.426-.426a4.246,4.246,0,0,1-.029-.738V84.812H89.587v8.232a4.829,4.829,0,0,0,.17,1.533,1.116,1.116,0,0,0,1.192.795,3.018,3.018,0,0,0,2.157-1.277v1.135h1.9V84.813h-1.9Z" transform="translate(-74.202 -58.897)" fill="#fff"/>
  <path id="パス_93" data-name="パス 93" d="M113.626,77.983a2.523,2.523,0,0,0-1.93,1.135v-4.57h-1.9V88.542h1.9V87.52a2.57,2.57,0,0,0,1.93,1.164,1.453,1.453,0,0,0,1.5-1.192,7.391,7.391,0,0,0,.2-2.072V81.275a7.563,7.563,0,0,0-.2-2.1A1.453,1.453,0,0,0,113.626,77.983Zm-.171,7.579q0,1.391-.823,1.391a1.333,1.333,0,0,1-.937-.455V80.139a1.335,1.335,0,0,1,.937-.454q.824,0,.823,1.419Z" transform="translate(-87.369 -52.209)" fill="#fff"/>
  <path id="パス_94" data-name="パス 94" d="M133.634,91.97q0,.3-.014.469c-.009.113-.014.18-.014.2a.822.822,0,0,1-.851.738q-.965,0-.965-1.448V90.082h3.775V87.925a4.069,4.069,0,0,0-.6-2.441,2.549,2.549,0,0,0-2.214-1.079,2.7,2.7,0,0,0-2.271,1.079,4.148,4.148,0,0,0-.568,2.441v3.662a3.991,3.991,0,0,0,.6,2.442,2.727,2.727,0,0,0,2.3,1.079,2.562,2.562,0,0,0,2.271-1.135,2.671,2.671,0,0,0,.426-1.135,9.525,9.525,0,0,0,.057-1.221V91.36h-1.931v.61Zm-1.844-4.414q0-1.448.936-1.447t.937,1.447v.965H131.79Z" transform="translate(-100.48 -58.632)" fill="#fff"/>
  <path id="パス_95" data-name="パス 95" d="M105.079,40.348q.908,0,.908-1.447V34.472q0-1.476-.908-1.476t-.908,1.476V38.9Q104.171,40.347,105.079,40.348Z" transform="translate(-83.705 -25.134)" fill="#fff"/>
</svg>
