<svg xmlns="http://www.w3.org/2000/svg" width="57.224" height="64.145" viewBox="0 0 57.224 64.145">
  <g id="グループ_102" data-name="グループ 102" transform="translate(-231.342 -672.422)">
    <g id="グループ_4" data-name="グループ 4" transform="translate(240.171 723.6)">
      <g id="グループ_1" data-name="グループ 1" transform="translate(0 1.207)">
        <path id="パス_1" data-name="パス 1" d="M256.609,794.107h6.99v.372h-13.01l-.2-1.544,5.556.878-1-9.674,1.845-.216c-.012.062-.061.111-.185.124v4h4.944v.372h-4.944Z" transform="translate(-250.245 -783.776)"/>
        <path id="パス_2" data-name="パス 2" d="M250.427,794.46a.145.145,0,0,1-.144-.126h0l-.2-1.544a.143.143,0,0,1,.042-.123h0a.147.147,0,0,1,.124-.04h0l5.37.848-.979-9.487a.146.146,0,0,1,.127-.158h0l1.846-.217a.146.146,0,0,1,.123.046h0a.145.145,0,0,1,.035.127h0a.29.29,0,0,1-.182.21h0v3.74h4.8a.142.142,0,0,1,.1.042h0a.147.147,0,0,1,.043.1h0v.372a.147.147,0,0,1-.043.1h0a.148.148,0,0,1-.1.042h-4.8v5.4h6.845a.146.146,0,0,1,.1.042h0a.149.149,0,0,1,.043.1h0v.372a.145.145,0,0,1-.043.1h0a.144.144,0,0,1-.1.042h-13.01Zm.127-.29h12.738v-.082h-6.845a.147.147,0,0,1-.1-.041h0a.146.146,0,0,1-.042-.1h0v-5.69a.152.152,0,0,1,.042-.1h0a.147.147,0,0,1,.1-.042h4.8v-.081h-4.8a.147.147,0,0,1-.1-.042h0a.145.145,0,0,1-.042-.1h0v-3.94l-1.357.159.983,9.533a.141.141,0,0,1-.045.12h0a.145.145,0,0,1-.122.038h0l-5.366-.849.159,1.226Z" transform="translate(-250.082 -783.613)"/>
      </g>
      <g id="グループ_2" data-name="グループ 2" transform="translate(16.603)">
        <path id="パス_3" data-name="パス 3" d="M292.373,783.47l4.414-.843,1.367,1.391-11.713.018v-.664l5.07.166-.1-2.18,1.152.25c-.013.062-.061.112-.186.124Zm5.176,4.968-.067,4.6c0,.347-.006.928-.006.928l-2.906.03c.1-.058-.195-.826-.195-.826.542.013,1.348.086,1.706.086.181,0,.235.055.235-.218l.066-4.223H287.9l-1.077,5.226h-.8l-.4-5.6Zm-8.993-3.49h6.616v2.434h-6.616Zm6.247,2.061v-1.689h-5.878v1.689Zm-.566,5.391h-4.39v.447h-.368v-2.981h4.759Zm-.368-2.161h-4.022v1.788h4.022Z" transform="translate(-285.487 -781.214)"/>
        <path id="パス_4" data-name="パス 4" d="M285.868,794.018a.146.146,0,0,1-.145-.134h0l-.4-5.6a.145.145,0,0,1,.039-.109h0a.147.147,0,0,1,.106-.046h11.917v0a.145.145,0,0,1,.1.043h0a.148.148,0,0,1,.042.1h0l-.066,4.594c0,.349-.006.93-.006.93h0a.145.145,0,0,1-.144.144h0l-2.906.029a.143.143,0,0,1-.14-.1h0a.145.145,0,0,1,.014-.114h0a4.032,4.032,0,0,0-.205-.7h0a.144.144,0,0,1,.016-.135h0a.146.146,0,0,1,.122-.062h0c.549.014,1.36.088,1.7.088h0c.034,0,.064,0,.088,0h0c0-.02,0-.046,0-.079h0l.064-4.076h-8.213L286.8,793.9a.145.145,0,0,1-.142.116h-.795Zm.135-.289h.542l1.054-5.112a.145.145,0,0,1,.142-.115h8.477a.145.145,0,0,1,.1.043h0a.14.14,0,0,1,.041.1h0l-.065,4.22a.539.539,0,0,1-.042.254h0a.227.227,0,0,1-.211.113h0c-.044,0-.081,0-.125,0h0c-.326,0-.98-.056-1.5-.079h0a3.089,3.089,0,0,1,.143.528h0l2.605-.026c0-.194,0-.547,0-.788h0l.065-4.449H285.624L286,793.73Zm3.313-.9a.142.142,0,0,1-.1-.042h0a.141.141,0,0,1-.043-.1h0V789.7a.144.144,0,0,1,.042-.1h0a.147.147,0,0,1,.1-.042h4.759a.144.144,0,0,1,.1.042h0a.145.145,0,0,1,.042.1h0v2.534a.141.141,0,0,1-.042.1h0a.145.145,0,0,1-.1.042h-4.246v.3a.141.141,0,0,1-.043.1h0a.142.142,0,0,1-.1.042h-.369Zm.145-.29h.078v-.3a.144.144,0,0,1,.042-.1h0a.149.149,0,0,1,.1-.042h4.245v-2.245h-4.469v2.692Zm4.614-.3v0Zm-4.39-.228a.143.143,0,0,1-.1-.042h0a.143.143,0,0,1-.043-.1h0v-1.788a.148.148,0,0,1,.042-.1h0a.15.15,0,0,1,.1-.042h4.022v0a.148.148,0,0,1,.1.042h0a.148.148,0,0,1,.042.1h0v1.788a.148.148,0,0,1-.042.1h0a.145.145,0,0,1-.1.042h-4.022Zm.144-.289h3.732v-1.5h-3.732v1.5Zm-1.436-4.356a.147.147,0,0,1-.1-.042h0a.143.143,0,0,1-.043-.1h0v-2.435a.145.145,0,0,1,.043-.1h0a.147.147,0,0,1,.1-.042h6.615a.145.145,0,0,1,.1.042h0a.146.146,0,0,1,.043.1h0v2.435a.143.143,0,0,1-.043.1h0a.147.147,0,0,1-.1.042h-6.615Zm.145-.29h6.326v-2.145h-6.326v2.145Zm.224-.083a.141.141,0,0,1-.1-.042h0a.142.142,0,0,1-.043-.1h0v-1.69a.143.143,0,0,1,.042-.1h0a.148.148,0,0,1,.1-.042h5.878a.146.146,0,0,1,.1.042h0a.142.142,0,0,1,.043.1h0v1.69a.145.145,0,0,1-.043.1h0a.142.142,0,0,1-.1.042h-5.878Zm5.878-.145v0Zm-5.734-.144H294.5v-1.4h-5.589v1.4Zm-2.731-2.726a.147.147,0,0,1-.043-.1h0v-.665a.142.142,0,0,1,.045-.1h0a.144.144,0,0,1,.106-.041h0l4.912.161-.1-2.023a.144.144,0,0,1,.051-.117h0a.146.146,0,0,1,.124-.031h0l1.152.25a.144.144,0,0,1,.112.171h0a.291.291,0,0,1-.182.209h0v1.447l4.24-.81a.143.143,0,0,1,.13.041h0l1.369,1.39a.147.147,0,0,1,.03.158h0a.146.146,0,0,1-.133.089h0l-11.713.018a.148.148,0,0,1-.1-.042Zm.247-.248,11.222-.018-1.071-1.089-4.336.828-.028-.142.028.142a.146.146,0,0,1-.12-.03h0a.147.147,0,0,1-.052-.112h0v-1.737a.155.155,0,0,1,.007-.046h0l-.676-.147.1,1.992a.146.146,0,0,1-.042.108h0a.14.14,0,0,1-.108.043h0l-4.92-.163v.371Z" transform="translate(-285.323 -781.05)"/>
      </g>
      <g id="グループ_3" data-name="グループ 3" transform="translate(32.829 0.097)">
        <path id="パス_5" data-name="パス 5" d="M322.976,786.461V790.8c.53-.223,1.083-.471,1.638-.709l.086.335-3.246,3.241c0,.088.1.215.023.252l-1.4-1.856c.516-.2,1.821-.8,2.535-1.1l-.587-4.495h-1.7v-1.045l1.549.4-.272-2.238,1.693-.016c-.013.062-.128.245-.251.258v2l1.482.272v.374Zm3.211,6.37c0,.658.786.858,1.1.858a33.088,33.088,0,0,0,4.228-.768c.281-.181.468-1,.468-1s1.464-.176,1.575-.153c-.1,1.691-.924,2.278-2.091,2.278h-4.117c-1.18,0-1.536-.224-1.536-1.229v-4.8l-1.428.621-.159-.334,1.588-.683v-3.541l.553.05c-.013.06-.062.112-.184.124v3.2l1.933-.994-.359-4.908,1.276.049c-.011.065-.06.113-.183.125v4.573l2.337-.933.1-.046,1.244-.507c0,.194-.04.02,0,0,.152-.087-1.035,4.99-1.159,5.449a.7.7,0,0,1-.713.622c-.308.012-.468.012-.764.012a1.415,1.415,0,0,0-.123-.385c.382.025.617.025.777.025.233,0,.392-.062.478-.422a34.1,34.1,0,0,0,.137-4.327l-2.313.909v4.662h-.37l-.364-4.5-1.933.992Z" transform="translate(-319.928 -781.419)"/>
        <path id="パス_6" data-name="パス 6" d="M331.307,794.03h-4.117a2.143,2.143,0,0,1-1.3-.268h0a1.285,1.285,0,0,1-.382-1.106h0v-4.575l-1.225.534a.145.145,0,0,1-.188-.07h0l-.159-.334a.148.148,0,0,1-.005-.114h0a.148.148,0,0,1,.079-.082h0l1.5-.645v-3.444a.146.146,0,0,1,.047-.108h0a.149.149,0,0,1,.111-.038h0l.553.051a.142.142,0,0,1,.1.059h0a.139.139,0,0,1,.025.116h0a.29.29,0,0,1-.18.208h0v2.853l1.638-.842-.352-4.813a.139.139,0,0,1,.04-.111h0a.147.147,0,0,1,.109-.044h0l1.276.049a.147.147,0,0,1,.107.055h0a.145.145,0,0,1,.03.116h0a.285.285,0,0,1-.18.214h0v4.245l2.131-.849.105-.05,1.23-.5a.158.158,0,0,1,.072-.018h0a.152.152,0,0,1,.148.122h0a.291.291,0,0,1,.006.062h0c-.006.529-1.056,5-1.174,5.444h0a.845.845,0,0,1-.848.735h0c-.31.011-.474.011-.769.011h0a.144.144,0,0,1-.143-.116h0a1.264,1.264,0,0,0-.108-.343h0a.148.148,0,0,1,0-.147h0a.149.149,0,0,1,.132-.067h0c.378.025.609.025.768.025h0c.208-.022.237.01.339-.315h0a32.761,32.761,0,0,0,.131-4.076h0l-2.023.795v4.563a.147.147,0,0,1-.043.1h0a.143.143,0,0,1-.1.042h-.369a.145.145,0,0,1-.145-.134h0l-.347-4.283-1.662.852v4.88a.612.612,0,0,0,.359.549h0a1.355,1.355,0,0,0,.6.163h0c.2,0,2.325-.328,3.464-.568h0a4.186,4.186,0,0,0,.685-.177h0a1.148,1.148,0,0,0,.282-.5h0a3.733,3.733,0,0,0,.123-.413h0a.143.143,0,0,1,.124-.111h0c.005,0,1.278-.155,1.557-.157h.016a.215.215,0,0,1,.067.011h0a.145.145,0,0,1,.1.146h0c-.08,1.715-.989,2.415-2.186,2.415h-.05Zm-5.574-6.29a.144.144,0,0,1,.065.121h0v4.8c0,.491.088.738.269.877h0a1.94,1.94,0,0,0,1.123.208h4.117c1.077-.019,1.783-.467,1.933-1.986h0c-.32.022-1.043.106-1.3.136h0a1.921,1.921,0,0,1-.5.988h0a3.49,3.49,0,0,1-.783.216h0c-.388.081-.878.171-1.371.256h0c-.992.17-1.958.316-2.153.318h0c-.35,0-1.225-.2-1.251-1h0V787.7a.146.146,0,0,1,.079-.129h0l1.934-.993a.147.147,0,0,1,.137,0h0a.149.149,0,0,1,.074.115h0l.352,4.365h.092v-4.516a.144.144,0,0,1,.092-.135h0l2.314-.908a.141.141,0,0,1,.134.015h0a.142.142,0,0,1,.064.12h0a33.552,33.552,0,0,1-.141,4.361h0a.581.581,0,0,1-.62.532h0c-.127,0-.3,0-.56-.013h0c.008.029.016.056.023.083h0c.226,0,.378,0,.641-.012h0c.3-.022.48-.113.579-.514h0c.1-.377,1-4.244,1.147-5.195h0l-1.031.421-.106.049-2.337.933a.145.145,0,0,1-.135-.015h0a.141.141,0,0,1-.064-.12h0v-4.567l-.792-.03.348,4.747a.144.144,0,0,1-.079.139h0l-1.933.995a.148.148,0,0,1-.143-.006h0a.145.145,0,0,1-.069-.123h0v-3.213h0l-.079-.007v3.382a.145.145,0,0,1-.087.133h0l-1.45.623.034.073,1.3-.566a.145.145,0,0,1,.057-.012h0a.146.146,0,0,1,.08.024Zm-4.537,6.1-1.4-1.855a.148.148,0,0,1-.024-.128h0a.142.142,0,0,1,.088-.095h0c.483-.185,1.7-.746,2.428-1.058h0l-.556-4.26h-1.568a.141.141,0,0,1-.1-.042h0a.14.14,0,0,1-.043-.1h0v-1.044a.147.147,0,0,1,.057-.115h0a.147.147,0,0,1,.125-.026h0l1.342.347-.245-2.027a.143.143,0,0,1,.035-.113h0a.142.142,0,0,1,.107-.05h0l1.694-.017a.144.144,0,0,1,.113.053h0a.146.146,0,0,1,.031.122h0a.555.555,0,0,1-.248.324h0v1.779l1.363.251a.145.145,0,0,1,.118.143h0v.373a.14.14,0,0,1-.043.1h0a.142.142,0,0,1-.1.042h-1.4v3.97c.466-.2.95-.414,1.435-.622h0a.143.143,0,0,1,.121,0h0a.143.143,0,0,1,.076.094h0l.086.336a.143.143,0,0,1-.038.138h0l-3.189,3.185a.622.622,0,0,1,.035.157h0a.2.2,0,0,1-.1.176h0a.148.148,0,0,1-.07.017h0a.143.143,0,0,1-.115-.058Zm.012-.464,3.166-3.16-.024-.092c-.5.217-1,.439-1.483.642h0a.142.142,0,0,1-.137-.013h0a.142.142,0,0,1-.064-.121h0V786.3a.144.144,0,0,1,.042-.1h0a.147.147,0,0,1,.1-.042h1.405v-.107l-1.364-.25a.146.146,0,0,1-.118-.143h0v-2a.146.146,0,0,1,.05-.11h0l-1.184.011.252,2.078a.145.145,0,0,1-.047.127h0a.146.146,0,0,1-.132.031h0l-1.368-.352v.713h1.552a.146.146,0,0,1,.144.126h0l.587,4.495a.146.146,0,0,1-.088.153h0c-.639.268-1.76.785-2.361,1.033h0l1.069,1.415Zm1.6-6.932v0Z" transform="translate(-319.765 -781.256)"/>
      </g>
    </g>
    <g id="グループ_51" data-name="グループ 51" transform="translate(231.342 672.422)">
      <g id="グループ_5" data-name="グループ 5" transform="translate(18.868 8.712)">
        <path id="パス_7" data-name="パス 7" d="M289.83,704.738a14.457,14.457,0,0,0,7.767,2.341,17.619,17.619,0,0,0,8.627-2.527l-.791-1.279a17.914,17.914,0,0,1-7.837,1.958h-.006a15.641,15.641,0,0,1-8.385-2.519,14.694,14.694,0,0,0-7.907-2.339,14.932,14.932,0,0,0-2.522.219l-1.666,2.171a17.133,17.133,0,0,1,4.191-.542A15.865,15.865,0,0,1,289.83,704.738Zm0-3.029a14.467,14.467,0,0,0,7.767,2.343,16.669,16.669,0,0,0,7.214-1.788l-6.982-11.3a.1.1,0,0,0-.146-.022l-9.776,8.461-5.892-2.9a.1.1,0,0,0-.119.027l-2.1,2.74c.491-.047.992-.076,1.506-.077A15.879,15.879,0,0,1,289.83,701.709Zm17.016,3.849a18.81,18.81,0,0,1-9.248,2.7h-.009a15.632,15.632,0,0,1-8.383-2.519,14.689,14.689,0,0,0-7.9-2.336,16.245,16.245,0,0,0-5.426.969l-1.94,2.528a18.213,18.213,0,0,1,7.363-1.65,15.882,15.882,0,0,1,8.531,2.515,14.42,14.42,0,0,0,7.767,2.342,18.733,18.733,0,0,0,9.99-3.349Zm-25.546.873a17.948,17.948,0,0,0-9.069,2.693l-.82,1.069a.1.1,0,0,0-.01.1.1.1,0,0,0,.087.054l8.5.031h12.5a17.493,17.493,0,0,1-3.283-1.612A14.692,14.692,0,0,0,281.3,706.431Zm28.433,3.8-1.526-2.47a24.149,24.149,0,0,1-5.308,2.617h6.752a.1.1,0,0,0,.084-.049A.1.1,0,0,0,309.733,710.232Z" transform="translate(-271.39 -690.914)"/>
      </g>
      <g id="グループ_23" data-name="グループ 23" transform="translate(19.582 31.386)">
        <g id="グループ_6" data-name="グループ 6" transform="translate(1.667 5.566)">
          <rect id="長方形_1" data-name="長方形 1" width="33.931" height="0.986" transform="translate(0.06 0.059)"/>
          <path id="パス_8" data-name="パス 8" d="M276.5,751.959a.062.062,0,0,1-.041-.016h0a.062.062,0,0,1-.018-.042h0v-.987a.059.059,0,0,1,.018-.042h0a.056.056,0,0,1,.041-.017h33.931a.06.06,0,0,1,.042.017h0a.057.057,0,0,1,.017.042h0v.987a.061.061,0,0,1-.017.042h0a.064.064,0,0,1-.042.016H276.5Zm33.931-.059v0Zm-33.872-.059h33.812v-.87H276.564v.87Z" transform="translate(-276.446 -750.855)"/>
        </g>
        <g id="グループ_7" data-name="グループ 7" transform="translate(0.278 8.501)">
          <path id="パス_9" data-name="パス 9" d="M309.648,758.268l-36.022.053.134-.986,35.817-.122Z" transform="translate(-273.565 -757.152)"/>
          <path id="パス_10" data-name="パス 10" d="M273.512,758.294a.056.056,0,0,1-.015-.048h0l.133-.987a.061.061,0,0,1,.06-.053h0l35.817-.122a.061.061,0,0,1,.06.057h0l.072,1.054-.06,0,.06,0a.063.063,0,0,1-.016.046h0a.065.065,0,0,1-.044.019h0l-36.022.053a.056.056,0,0,1-.045-.02Zm.232-.967-.117.865,35.887-.053-.064-.933-35.707.12Z" transform="translate(-273.496 -757.084)"/>
        </g>
        <g id="グループ_8" data-name="グループ 8" transform="translate(25.139 5.938)">
          <rect id="長方形_2" data-name="長方形 2" width="0.894" height="3.327" transform="translate(0.017 0.017)"/>
          <path id="パス_11" data-name="パス 11" d="M326.267,754.99l.017-3.344h.894v.016h.017l-.017,3.345-.912-.017Zm.017-.017.876.017v-3.31l-.858-.018-.017,3.311Z" transform="translate(-326.267 -751.645)"/>
        </g>
        <g id="グループ_9" data-name="グループ 9" transform="translate(21.504 5.938)">
          <rect id="長方形_3" data-name="長方形 3" width="0.896" height="3.327" transform="translate(0.018 0.017)"/>
          <path id="パス_12" data-name="パス 12" d="M318.551,754.99l.018-3.344h.9v.016h.017l-.017,3.345-.914-.017Zm.018-.017.879.017v-3.31l-.862-.018-.017,3.311Z" transform="translate(-318.551 -751.645)"/>
        </g>
        <g id="グループ_10" data-name="グループ 10" transform="translate(17.869 5.938)">
          <rect id="長方形_4" data-name="長方形 4" width="0.896" height="3.327" transform="translate(0.018 0.017)"/>
          <path id="パス_13" data-name="パス 13" d="M310.835,754.99l.019-3.344h.9v.016h.017l-.017,3.345-.914-.017Zm.019-.017.877.017v-3.31l-.86-.018-.017,3.311Z" transform="translate(-310.835 -751.645)"/>
        </g>
        <g id="グループ_11" data-name="グループ 11" transform="translate(14.235 5.938)">
          <rect id="長方形_5" data-name="長方形 5" width="0.897" height="3.327" transform="translate(0.018 0.017)"/>
          <path id="パス_14" data-name="パス 14" d="M303.121,754.99l.018-3.344h.9v.016h.018l-.018,3.345-.914-.017Zm.018-.017.879.017v-3.31l-.861-.018-.017,3.311Z" transform="translate(-303.121 -751.645)"/>
        </g>
        <g id="グループ_12" data-name="グループ 12" transform="translate(10.6 5.938)">
          <rect id="長方形_6" data-name="長方形 6" width="0.897" height="3.327" transform="translate(0.018 0.017)"/>
          <path id="パス_15" data-name="パス 15" d="M295.406,754.99l.018-3.344h.9v.016h.017l-.017,3.345-.915-.017Zm.018-.017.879.017v-3.31l-.862-.018-.017,3.311Z" transform="translate(-295.406 -751.645)"/>
        </g>
        <g id="グループ_17" data-name="グループ 17" transform="translate(0 0.016)">
          <g id="グループ_13" data-name="グループ 13" transform="translate(0.388 0.697)">
            <rect id="長方形_7" data-name="長方形 7" width="8.651" height="1.311" transform="translate(0.033 8.653) rotate(-84.995)"/>
            <path id="パス_16" data-name="パス 16" d="M275.066,749.354l-1.3-.115a.033.033,0,0,1-.031-.037h0l.753-8.618a.033.033,0,0,1,.037-.031h0l1.307.115,0,.034,0-.034a.031.031,0,0,1,.023.013h0a.03.03,0,0,1,.008.025h0l-.755,8.617a.035.035,0,0,1-.012.023h0a.037.037,0,0,1-.023.008h0Zm-1.264-.18,1.236.108.749-8.549-1.239-.11-.746,8.551Z" transform="translate(-273.731 -740.553)"/>
          </g>
          <g id="グループ_14" data-name="グループ 14" transform="translate(5.712 0.697)">
            <rect id="長方形_8" data-name="長方形 8" width="1.311" height="8.651" transform="translate(0.035 0.149) rotate(-5.001)"/>
            <path id="パス_17" data-name="パス 17" d="M285.8,749.346a.032.032,0,0,1-.012-.023h0l-.756-8.617a.036.036,0,0,1,.032-.038h0l1.306-.115a.035.035,0,0,1,.038.031h0l.753,8.618a.033.033,0,0,1-.008.025h0a.033.033,0,0,1-.023.012h0l-1.3.115h0a.031.031,0,0,1-.022-.008Zm-.7-8.613.749,8.549,1.237-.109-.748-8.55-1.238.11Z" transform="translate(-285.031 -740.553)"/>
          </g>
          <g id="グループ_15" data-name="グループ 15" transform="translate(0.11)">
            <path id="パス_18" data-name="パス 18" d="M281.492,740.477l-8.282-.02v-1.312h7.9Z" transform="translate(-273.177 -739.111)"/>
            <path id="パス_19" data-name="パス 19" d="M273.173,740.452a.033.033,0,0,1-.033-.032h0v-1.312a.033.033,0,0,1,.009-.024h0a.036.036,0,0,1,.023-.009h7.9l.032.025.38,1.331-.031.009v0l.031-.009a.031.031,0,0,1-.005.029h0a.032.032,0,0,1-.026.014h0l-8.282-.021Zm.033-.065,8.206.02-.362-1.267h-7.843v1.247Z" transform="translate(-273.14 -739.074)"/>
          </g>
          <g id="グループ_16" data-name="グループ 16" transform="translate(0 3.093)">
            <rect id="長方形_9" data-name="長方形 9" width="8.12" height="1.311" transform="translate(0.033 0.034)"/>
            <path id="パス_20" data-name="パス 20" d="M272.94,747.017a.034.034,0,0,1-.024-.009h0a.032.032,0,0,1-.01-.024h0v-1.311a.038.038,0,0,1,.009-.025h0a.036.036,0,0,1,.024-.009h8.119a.034.034,0,0,1,.024.01h0a.036.036,0,0,1,.009.024h0v1.311a.036.036,0,0,1-.009.024h0a.037.037,0,0,1-.024.009H272.94Zm8.119-.033v0Zm-8.086-.033h8.053v-1.245h-8.053v1.245Z" transform="translate(-272.907 -745.639)"/>
          </g>
        </g>
        <g id="グループ_22" data-name="グループ 22" transform="translate(28.196)">
          <g id="グループ_18" data-name="グループ 18" transform="translate(0.763 0.725)">
            <rect id="長方形_10" data-name="長方形 10" width="8.652" height="1.31" transform="matrix(0.083, -0.997, 0.997, 0.083, 0.034, 8.657)"/>
            <path id="パス_21" data-name="パス 21" d="M335.71,749.378l-1.306-.107a.034.034,0,0,1-.031-.037h0l.717-8.623a.034.034,0,0,1,.037-.031h0l1.305.109,0,.034,0-.034a.028.028,0,0,1,.024.012h0a.03.03,0,0,1,.008.025h0l-.718,8.621a.036.036,0,0,1-.012.024h0a.033.033,0,0,1-.022.008h0Zm-1.265-.173,1.236.1.712-8.553-1.237-.1-.711,8.554Z" transform="translate(-334.374 -740.58)"/>
          </g>
          <g id="グループ_19" data-name="グループ 19" transform="translate(6.053 0.7)">
            <rect id="長方形_11" data-name="長方形 11" width="1.309" height="8.651" transform="translate(0.034 0.155) rotate(-5.236)"/>
            <path id="パス_22" data-name="パス 22" d="M346.4,749.323a.033.033,0,0,1-.012-.023h0l-.79-8.615a.034.034,0,0,1,.031-.038h0l1.3-.121a.035.035,0,0,1,.038.032h0l.789,8.614a.035.035,0,0,1-.008.026h0a.03.03,0,0,1-.023.012h0l-1.3.12h0a.029.029,0,0,1-.021-.008Zm-.731-8.61.784,8.546,1.235-.114-.783-8.545-1.236.113Z" transform="translate(-345.603 -740.527)"/>
          </g>
          <g id="グループ_20" data-name="グループ 20">
            <path id="パス_23" data-name="パス 23" d="M341.179,740.423l-8.353.033.446-1.311,7.9-.031Z" transform="translate(-332.792 -739.079)"/>
            <path id="パス_24" data-name="パス 24" d="M332.761,740.437a.035.035,0,0,1,0-.031h0l.446-1.312.031-.022,7.9-.031a.033.033,0,0,1,.033.033h0l.006,1.31h0a.029.029,0,0,1-.011.023h0a.028.028,0,0,1-.022.01h0l-8.354.032a.034.034,0,0,1-.027-.013Zm.5-1.3-.423,1.245,8.273-.032,0-1.246-7.847.032Z" transform="translate(-332.755 -739.041)"/>
          </g>
          <g id="グループ_21" data-name="グループ 21" transform="translate(0.35 3.092)">
            <rect id="長方形_12" data-name="長方形 12" width="8.12" height="1.309" transform="matrix(1, -0.004, 0.004, 1, 0.033, 0.067)"/>
            <path id="パス_25" data-name="パス 25" d="M333.511,747a.036.036,0,0,1-.009-.024h0l0-1.309a.033.033,0,0,1,.033-.034h0l8.12-.032a.034.034,0,0,1,.033.032h0l.008,1.309h-.034v0h.034a.032.032,0,0,1-.01.025h0a.033.033,0,0,1-.024.009h0l-8.122.033a.039.039,0,0,1-.024-.009Zm.053-1.3,0,1.242,8.055-.032-.007-1.243-8.052.033Z" transform="translate(-333.497 -745.603)"/>
          </g>
        </g>
        <path id="パス_26" data-name="パス 26" d="M288.692,739.81l.6-.754s.057.046.182.137h0c.126.091.314.223.558.381h0a18.1,18.1,0,0,0,2.1,1.168h0a16.916,16.916,0,0,0,7.188,1.7h0a20.189,20.189,0,0,0,9.759-2.879h0c.54-.32.827-.523.827-.523h0l.558.784a21.454,21.454,0,0,1-11.144,3.581h0a18.647,18.647,0,0,1-10.631-3.6Z" transform="translate(-281.255 -739.041)"/>
      </g>
      <g id="グループ_25" data-name="グループ 25" transform="translate(13.205 10.875)">
        <g id="グループ_24" data-name="グループ 24" transform="translate(0.091 0.082)">
          <path id="パス_27" data-name="パス 27" d="M260.842,695.81a.14.14,0,0,1,.138-.132h1.132a.138.138,0,0,1,.136.132l.85,30.048a.127.127,0,0,1-.129.132h-3.279a.126.126,0,0,1-.127-.132Z" transform="translate(-259.564 -695.678)"/>
        </g>
        <path id="パス_28" data-name="パス 28" d="M259.371,725.98l1.292-30.4,0-.078h1.555l.863,30.476Zm.171-.164h3.374l-.854-30.148h-1.237l-1.283,30.148Z" transform="translate(-259.371 -695.504)"/>
      </g>
      <g id="グループ_27" data-name="グループ 27" transform="translate(6.422 16.636)">
        <g id="グループ_26" data-name="グループ 26" transform="translate(0.157 0.172)">
          <path id="パス_29" data-name="パス 29" d="M255.074,718.2a.5.5,0,0,0,.236-.091l3.978-3.118a.136.136,0,0,0,.025-.187l-.485-.644a.137.137,0,0,0-.188-.03l-3.376,2.4a.175.175,0,0,1-.206-.011l-9.381-8.389a.13.13,0,0,0-.185.012l-.148.17a.163.163,0,0,0,0,.2l7.884,9.714a.285.285,0,0,0,.215.093Z" transform="translate(-245.307 -708.1)"/>
        </g>
        <path id="パス_30" data-name="パス 30" d="M244.973,708.217l.421-.483,9.592,8.577,3.6-2.561.741.984-4.249,3.333-.019.015-1.967.144-8.121-10.007Zm.214,0,7.98,9.833,1.831-.134,4.1-3.217-.548-.728-3.58,2.545-9.565-8.553-.221.254Z" transform="translate(-244.973 -707.734)"/>
      </g>
      <g id="グループ_29" data-name="グループ 29" transform="translate(11.427 11.617)">
        <g id="グループ_28" data-name="グループ 28" transform="translate(0.128 0.205)">
          <path id="パス_31" data-name="パス 31" d="M260.428,705.25a.336.336,0,0,0,.22-.1l4.728-5.4a.224.224,0,0,0,.033-.22l-.125-.274a.084.084,0,0,0-.147-.025l-4.521,4.694a.136.136,0,0,1-.188,0l-1.223-1.15a1,1,0,0,1-.161-.206l-2.77-5.01a.087.087,0,0,0-.151-.017l-.2.232a.246.246,0,0,0-.042.224l2.566,7.114a.206.206,0,0,0,.177.125Z" transform="translate(-255.868 -697.515)"/>
        </g>
        <path id="パス_32" data-name="パス 32" d="M258.288,705.1l-2.692-7.463.485-.554,2.938,5.322,1.357,1.275,4.732-4.913.306.674-4.936,5.636-.025.028-2.166-.006Zm2.129-.076v0Zm-4.634-7.351,2.619,7.264,1.976,0,4.843-5.528-.163-.357-4.677,4.855-1.49-1.406-2.841-5.138-.267.305Z" transform="translate(-255.596 -697.08)"/>
      </g>
      <g id="グループ_31" data-name="グループ 31" transform="translate(13.647 4.443)">
        <g id="グループ_30" data-name="グループ 30" transform="translate(0.101 0.101)">
          <path id="パス_33" data-name="パス 33" d="M262.083,689.318c.832.739,2.249-2.521,2.36-3.209.177-1.086-.238-3.878-1.774-4.039-1.3-.133-2.169,2.428-2.146,3.323a4.867,4.867,0,0,0,1.653,4.042" transform="translate(-260.522 -682.065)"/>
        </g>
        <path id="パス_34" data-name="パス 34" d="M262.023,689.363l-.031.031a4.967,4.967,0,0,1-1.684-4.106h0v-.043h0c.018-.937.792-3.351,2.149-3.393h0a1.023,1.023,0,0,1,.108.005h0c1.432.177,1.894,2.306,1.9,3.592h0a3.6,3.6,0,0,1-.039.563h0a8.308,8.308,0,0,1-.782,1.921h0c-.42.755-.89,1.456-1.411,1.478h0a.476.476,0,0,1-.211-.049Zm-.121-.083h0Zm.334-.068c.316.022.841-.626,1.234-1.375h0a8.174,8.174,0,0,0,.759-1.857h0a3.36,3.36,0,0,0,.037-.531h0c.008-1.258-.514-3.294-1.721-3.392h0c-.03,0-.059,0-.088,0h0c-.541-.007-1.043.551-1.4,1.253h0a5.069,5.069,0,0,0-.553,1.938h0c0,.013,0,.023,0,.033h0a4.732,4.732,0,0,0,1.514,3.866h0l.012-.014a.3.3,0,0,0,.2.083Z" transform="translate(-260.308 -681.852)"/>
      </g>
      <g id="グループ_33" data-name="グループ 33" transform="translate(19.424 9.083)">
        <g id="グループ_32" data-name="グループ 32" transform="translate(0.083 0.082)">
          <path id="パス_35" data-name="パス 35" d="M272.8,697.319c.152,1.056,2.823-.586,3.264-1.042.7-.722,1.917-3.1.993-4.128-.778-.873-2.719.56-3.183,1.256a5.23,5.23,0,0,0-1.075,4.058" transform="translate(-272.745 -691.876)"/>
        </g>
        <path id="パス_36" data-name="パス 36" d="M272.658,697.376l-.039,0a8.507,8.507,0,0,1-.049-.879h0a5.311,5.311,0,0,1,1.138-3.233h0A4.081,4.081,0,0,1,276.3,691.7h0a.927.927,0,0,1,.722.3h0a1.548,1.548,0,0,1,.354,1.063h0a5.563,5.563,0,0,1-1.348,3.175h0a6.264,6.264,0,0,1-2.858,1.414h-.024a.5.5,0,0,1-.486-.281Zm.51.116a6.213,6.213,0,0,0,2.74-1.365h0a5.416,5.416,0,0,0,1.3-3.061h0a1.384,1.384,0,0,0-.312-.954h0a.762.762,0,0,0-.6-.246h0a3.96,3.96,0,0,0-2.454,1.493h0a5.148,5.148,0,0,0-1.111,3.142h0c0,.222.012.459.036.716h0l.015,0c.036.206.148.269.384.277Z" transform="translate(-272.57 -691.701)"/>
      </g>
      <g id="グループ_35" data-name="グループ 35" transform="translate(18.454 16.614)">
        <g id="グループ_34" data-name="グループ 34" transform="translate(0.069 0.071)">
          <path id="パス_37" data-name="パス 37" d="M270.681,711.677c-.03.9,2.419.057,2.849-.236.682-.463,2.039-2.193,1.427-3.221-.519-.87-2.33-.056-2.816.429a4.211,4.211,0,0,0-1.482,3.147" transform="translate(-270.659 -707.837)"/>
        </g>
        <path id="パス_38" data-name="パス 38" d="M270.544,711.715l-.032,0a4.28,4.28,0,0,1,1.5-3.19h0a3.542,3.542,0,0,1,2.058-.835h0a.949.949,0,0,1,.866.419h0a1.226,1.226,0,0,1,.163.633h0a4.1,4.1,0,0,1-1.611,2.68h0a5.709,5.709,0,0,1-2.27.652h0c-.326,0-.618-.091-.677-.356Zm.128-.112v.011h0c0,.228.191.313.549.32h0a5.629,5.629,0,0,0,2.193-.629h0a3.982,3.982,0,0,0,1.55-2.565h0a1.078,1.078,0,0,0-.145-.563h0a.8.8,0,0,0-.747-.35h0a3.428,3.428,0,0,0-1.96.793h0a4.1,4.1,0,0,0-1.452,2.982h.012Z" transform="translate(-270.512 -707.687)"/>
      </g>
      <g id="グループ_37" data-name="グループ 37" transform="translate(0 18.357)">
        <g id="グループ_36" data-name="グループ 36" transform="translate(0.083 0.083)">
          <path id="パス_39" data-name="パス 39" d="M237.722,713.437c.558.859-2.332,1.887-2.924,1.925-.939.063-3.273-.6-3.28-2.076,0-1.247,2.246-1.82,3-1.71a4.062,4.062,0,0,1,3.293,1.96" transform="translate(-231.518 -711.563)"/>
        </g>
        <path id="パス_40" data-name="パス 40" d="M231.344,713.206a.058.058,0,0,1,0-.016h0c.028-1.245,1.961-1.794,2.877-1.8h0a1.328,1.328,0,0,1,.222.016h0a4.147,4.147,0,0,1,3.348,1.993h0l-.032.023a.474.474,0,0,1,.025.153h0c-.018.486-.658.882-1.342,1.212h0a6.531,6.531,0,0,1-1.73.568h0c-.042,0-.087,0-.134,0h0c-1.028-.008-3.2-.66-3.232-2.149Zm.163-.014a1.808,1.808,0,0,0,1.156,1.5h0a4.586,4.586,0,0,0,1.913.5h0c.044,0,.085,0,.123,0h0a6.436,6.436,0,0,0,1.671-.552h0c.678-.309,1.265-.744,1.247-1.063h0a.332.332,0,0,0-.057-.183h0l.014-.009a3.945,3.945,0,0,0-3.157-1.814h0a1.234,1.234,0,0,0-.2-.012h0a4.269,4.269,0,0,0-1.7.422h0c-.577.283-1.019.7-1.016,1.216h-.066l.067,0Z" transform="translate(-231.342 -711.387)"/>
      </g>
      <g id="グループ_39" data-name="グループ 39" transform="translate(3.884 22.917)">
        <g id="グループ_38" data-name="グループ 38" transform="translate(0.082 0.082)">
          <path id="パス_41" data-name="パス 41" d="M245.2,721.548c.874.388-1.086,3.02-1.567,3.413-.763.625-3.05,1.489-3.745.246-.587-1.048,1.043-2.909,1.736-3.277a3.741,3.741,0,0,1,3.7-.356" transform="translate(-239.761 -721.238)"/>
        </g>
        <path id="パス_42" data-name="パス 42" d="M239.722,725.155a1.118,1.118,0,0,1-.136-.552h0a4.307,4.307,0,0,1,1.9-2.838h0a4.625,4.625,0,0,1,2.207-.7h0a4.334,4.334,0,0,1,1.563.342h0l-.016.04a.5.5,0,0,1,.164.407h0c-.015.926-1.4,2.726-1.819,3.08h0a4.6,4.6,0,0,1-2.521.9h-.006a1.438,1.438,0,0,1-1.342-.675Zm1.845-3.245a4.2,4.2,0,0,0-1.817,2.693h0a.952.952,0,0,0,.115.472h0a1.271,1.271,0,0,0,1.2.59h0a4.448,4.448,0,0,0,2.418-.86h0c.373-.294,1.773-2.162,1.758-2.953h0a.308.308,0,0,0-.173-.321h0l.008-.017a3.99,3.99,0,0,0-1.384-.286h0a4.488,4.488,0,0,0-2.13.682Z" transform="translate(-239.586 -721.064)"/>
      </g>
      <g id="グループ_41" data-name="グループ 41" transform="translate(7.974 26.415)">
        <g id="グループ_40" data-name="グループ 40" transform="translate(0.082 0.082)">
          <path id="パス_43" data-name="パス 43" d="M252.34,728.69c.954.011.189,3.2-.1,3.753-.456.876-2.217,2.569-3.346,1.7-.951-.731-.184-3.085.306-3.7a3.738,3.738,0,0,1,3.264-1.783" transform="translate(-248.443 -728.664)"/>
        </g>
        <path id="パス_44" data-name="パス 44" d="M248.754,734.116a1.539,1.539,0,0,1-.486-1.27h0a4.925,4.925,0,0,1,.777-2.543h0a3.823,3.823,0,0,1,3.325-1.813h0v.045c.332.1.422.542.422,1.041h0a8.59,8.59,0,0,1-.572,2.814h0a3.908,3.908,0,0,1-2.7,1.984h0a1.228,1.228,0,0,1-.766-.258Zm.42-3.71a4.788,4.788,0,0,0-.741,2.44h0a1.379,1.379,0,0,0,.421,1.139h0a1.062,1.062,0,0,0,.666.225h0a3.779,3.779,0,0,0,2.557-1.9h0a8.551,8.551,0,0,0,.554-2.736h0a1.815,1.815,0,0,0-.1-.664h0c-.07-.159-.152-.228-.286-.232h0v-.019a3.634,3.634,0,0,0-3.074,1.746Z" transform="translate(-248.268 -728.49)"/>
      </g>
      <g id="グループ_43" data-name="グループ 43" transform="translate(7.276 6.949)">
        <g id="グループ_42" data-name="グループ 42" transform="translate(0.082 0.082)">
          <path id="パス_45" data-name="パス 45" d="M251.735,692.544c-.1,1.062-2.838-.4-3.3-.824-.729-.673-2.059-2.96-1.194-4.054.734-.924,2.735.381,3.23,1.044a5.177,5.177,0,0,1,1.271,3.978" transform="translate(-246.96 -687.346)"/>
        </g>
        <path id="パス_46" data-name="パス 46" d="M251.126,692.913a6.354,6.354,0,0,1-2.838-1.224h0a5.359,5.359,0,0,1-1.5-3.2h0a1.513,1.513,0,0,1,.3-.965h0a.97.97,0,0,1,.8-.352h0a4.086,4.086,0,0,1,2.564,1.4h0a5.191,5.191,0,0,1,1.3,3.513h0c0,.163-.005.336-.014.518h0l-.038,0a.536.536,0,0,1-.543.316h-.026Zm-3.244-5.576a.8.8,0,0,0-.668.289h0a1.352,1.352,0,0,0-.265.863h0a5.222,5.222,0,0,0,1.45,3.079h0a6.3,6.3,0,0,0,2.726,1.182h0c.277-.01.409-.081.434-.306h.015c0-.126.007-.246.007-.363h0a5.021,5.021,0,0,0-1.268-3.415h0a3.985,3.985,0,0,0-2.421-1.331h-.011Z" transform="translate(-246.786 -687.172)"/>
      </g>
      <g id="グループ_45" data-name="グループ 45" transform="translate(8.921 14.966)">
        <g id="グループ_44" data-name="グループ 44" transform="translate(0.07 0.07)">
          <path id="パス_47" data-name="パス 47" d="M254.453,708.718c-.083.9-2.393-.336-2.781-.693-.615-.568-1.736-2.5-1.007-3.418.619-.781,2.308.319,2.725.879a4.364,4.364,0,0,1,1.07,3.354" transform="translate(-250.427 -704.337)"/>
        </g>
        <path id="パス_48" data-name="パス 48" d="M253.938,709.029A5.378,5.378,0,0,1,251.546,708h0a4.521,4.521,0,0,1-1.268-2.7h0a1.278,1.278,0,0,1,.253-.812h0a.819.819,0,0,1,.674-.3h0a3.449,3.449,0,0,1,2.161,1.177h0a4.375,4.375,0,0,1,1.1,2.961h0c0,.14,0,.285-.012.44h0l-.031,0a.45.45,0,0,1-.456.265h-.025Zm-2.733-4.7a.677.677,0,0,0-.565.245h0a1.133,1.133,0,0,0-.222.726h0a4.407,4.407,0,0,0,1.223,2.6h0a5.305,5.305,0,0,0,2.3,1h0c.234-.008.345-.068.367-.259h0l.011,0c0-.107.006-.209.006-.308h0a4.238,4.238,0,0,0-1.067-2.878h0a3.352,3.352,0,0,0-2.041-1.121h-.01Z" transform="translate(-250.278 -704.189)"/>
      </g>
      <g id="グループ_47" data-name="グループ 47" transform="translate(2.226 11.637)">
        <g id="グループ_46" data-name="グループ 46" transform="translate(0.094 0.094)">
          <path id="パス_49" data-name="パス 49" d="M241.7,703.116c-.13,1.2-3.26-.4-3.786-.877-.829-.747-2.325-3.3-1.311-4.547.857-1.05,3.142.388,3.7,1.127a5.618,5.618,0,0,1,1.4,4.459" transform="translate(-236.267 -697.322)"/>
        </g>
        <path id="パス_50" data-name="パス 50" d="M240.977,703.54a7.239,7.239,0,0,1-3.227-1.337h0a5.838,5.838,0,0,1-1.683-3.549h0a1.735,1.735,0,0,1,.361-1.126h0a1.16,1.16,0,0,1,.941-.406h0a4.616,4.616,0,0,1,2.907,1.534h0a5.639,5.639,0,0,1,1.448,3.823h0c0,.221-.01.452-.025.7h0l-.044,0a.642.642,0,0,1-.649.363h-.03Zm-3.608-6.23a.968.968,0,0,0-.8.337h0a1.54,1.54,0,0,0-.32,1.007h0a5.684,5.684,0,0,0,1.621,3.41h0a7.157,7.157,0,0,0,3.1,1.29h0c.331-.009.495-.1.528-.352h.017c.01-.182.016-.356.016-.522h0a5.442,5.442,0,0,0-1.41-3.71h0a4.488,4.488,0,0,0-2.745-1.46h-.013Z" transform="translate(-236.067 -697.123)"/>
      </g>
      <g id="グループ_48" data-name="グループ 48" transform="translate(33.07 10.354)">
        <path id="パス_51" data-name="パス 51" d="M304.97,698.224c.023.127-.052.183-.167.124l-.953-.489a.5.5,0,0,0-.416,0l-.941.5c-.114.061-.19.006-.17-.121l.172-1.057a.5.5,0,0,0-.132-.394l-.771-.739c-.093-.089-.065-.179.063-.2l1.054-.163a.5.5,0,0,0,.335-.247l.465-.963c.056-.116.149-.117.208,0l.481.953a.5.5,0,0,0,.338.241l1.062.146c.128.018.158.107.066.2l-.76.753a.5.5,0,0,0-.125.4Z" transform="translate(-301.536 -694.398)"/>
      </g>
      <g id="グループ_50" data-name="グループ 50" transform="translate(25.247)">
        <g id="グループ_49" data-name="グループ 49">
          <path id="パス_52" data-name="パス 52" d="M294.866,676.153a.058.058,0,0,0-.008-.027c0-.007-.487-.034-1.052-.06l-.7-.032a.765.765,0,0,1-.731-1.034l.2-.67c.165-.543.3-.993.3-1s-.018-.025-.026-.027-.394.287-.845.631l-.556.424a.765.765,0,0,1-1.225-.323l-.275-.644c-.223-.521-.414-.959-.425-.97l-.014,0H289.5c-.008.013-.116.477-.24,1.03l-.152.683a.764.764,0,0,1-1.145.539l-.623-.316c-.506-.257-.933-.468-.948-.471l-.01.01-.01.011c0,.016.218.441.478.944l.322.622a.765.765,0,0,1-.53,1.15l-.683.159c-.553.129-1.01.237-1.017.242a.052.052,0,0,0-.009.036c0,.008.445.2.969.416l.645.268a.764.764,0,0,1,.333,1.221l-.419.56c-.34.454-.622.837-.628.852l.008.012.008.012c.016,0,.471-.138,1.013-.307l.668-.209a.765.765,0,0,1,1.04.723l.038.7c.031.567.061,1.042.067,1.056l.014,0h.019c.009-.008.267-.406.573-.883l.376-.59a.765.765,0,0,1,1.261-.116l.476.51c.389.414.717.759.731.766l.013-.006.013-.005c0-.016-.053-.489-.125-1.052l-.088-.69a.764.764,0,0,1,.891-.9l.692.084c.563.067,1.037.121,1.052.117l.006-.012.006-.014c-.008-.014-.355-.339-.773-.724l-.514-.474a.764.764,0,0,1,.106-1.261l.584-.382C294.464,676.428,294.865,676.16,294.866,676.153Z" transform="translate(-284.931 -672.422)"/>
          <path id="パス_53" data-name="パス 53" d="M294.866,676.153a.058.058,0,0,0-.008-.027c0-.007-.487-.034-1.052-.06l-.7-.032a.765.765,0,0,1-.731-1.034l.2-.67c.165-.543.3-.993.3-1s-.018-.025-.026-.027-.394.287-.845.631l-.556.424a.765.765,0,0,1-1.225-.323l-.275-.644c-.223-.521-.414-.959-.425-.97l-.014,0H289.5c-.008.013-.116.477-.24,1.03l-.152.683a.764.764,0,0,1-1.145.539l-.623-.316c-.506-.257-.933-.468-.948-.471l-.01.01-.01.011c0,.016.218.441.478.944l.322.622a.765.765,0,0,1-.53,1.15l-.683.159c-.553.129-1.01.237-1.017.242a.052.052,0,0,0-.009.036c0,.008.445.2.969.416l.645.268a.764.764,0,0,1,.333,1.221l-.419.56c-.34.454-.622.837-.628.852l.008.012.008.012c.016,0,.471-.138,1.013-.307l.668-.209a.765.765,0,0,1,1.04.723l.038.7c.031.567.061,1.042.067,1.056l.014,0h.019c.009-.008.267-.406.573-.883l.376-.59a.765.765,0,0,1,1.261-.116l.476.51c.389.414.717.759.731.766l.013-.006.013-.005c0-.016-.053-.489-.125-1.052l-.088-.69a.764.764,0,0,1,.891-.9l.692.084c.563.067,1.037.121,1.052.117l.006-.012.006-.014c-.008-.014-.355-.339-.773-.724l-.514-.474a.764.764,0,0,1,.106-1.261l.584-.382C294.464,676.428,294.865,676.16,294.866,676.153Z" transform="translate(-284.931 -672.422)"/>
        </g>
      </g>
    </g>
    <g id="グループ_52" data-name="グループ 52" transform="translate(246.504 717.092)">
      <path id="パス_54" data-name="パス 54" d="M263.9,771.665v-.146c.445,0,.353-.111.353-.341l-.379-3.189c0-.323-.148-.393-.353-.393v-.146h1.45v.146c-.428,0-.358.07-.358.381V769.8l1.952-1.812a.263.263,0,0,0,.08-.164c0-.118.141-.223-.264-.223v-.146h1.109v.146c-.245,0-.394.111-.657.363l-1.153,1.073,1.427,2.145c.171.281.086.341.486.341v.146h-1.2v-.146c.343,0,.365-.024.365-.158a.322.322,0,0,0-.04-.117l-1.3-1.975-.81.762v1.155c0,.223-.045.335.406.335v.146Z" transform="translate(-263.525 -767.35)"/>
      <path id="パス_55" data-name="パス 55" d="M276.613,773.018a.537.537,0,0,1-.456.288c-.257,0-.308-.194-.308-.4a1.3,1.3,0,0,1-.976.4c-.554,0-.8-.3-.8-.681,0-.522.594-.921,1.781-1.108V771.1c0-.352-.165-.586-.508-.586-.434,0-.7.454-.8.753-.046.129-.536-.092-.536-.092,0-.293.619-.8,1.366-.8.5,0,1.106.269,1.106.779l-.284,1.624c0,.176.017.316.108.316a.348.348,0,0,0,.263-.135Zm-.765-1.343c-.765.088-1.4.41-1.4.938,0,.264.195.458.537.458a1.07,1.07,0,0,0,.868-.334Z" transform="translate(-269.066 -768.897)"/>
      <path id="パス_56" data-name="パス 56" d="M282.71,773.212v-.14c.285,0,.31-.106.31-.329l-.331-1.717c0-.264-.025-.317-.288-.317l-.023-.1.985-.235v.527a1.5,1.5,0,0,1,1.022-.527.67.67,0,0,1,.651.51,1.544,1.544,0,0,1,1.022-.51.649.649,0,0,1,.662.645l.379,1.723c0,.223.142.329.405.329v.14h-1.414v-.14c.263,0,.288-.106.288-.329v-1.629a.482.482,0,0,0-.514-.487,1.246,1.246,0,0,0-.828.434v1.682c0,.223.031.329.282.329v.14h-.912v-.14c.274,0,.287-.106.287-.329v-1.635a.469.469,0,0,0-.48-.469,1.106,1.106,0,0,0-.85.452v1.652c0,.223.014.329.3.329v.14Z" transform="translate(-273.496 -768.897)"/>
      <path id="パス_57" data-name="パス 57" d="M296.09,771.553v-.147c.263,0,.377-.053.377-.287v-1.788c0-.153.032-.264-.287-.264l-.017-.088.979-.264-.331,2.4c0,.234.086.287.383.287v.147Zm.857-4.022a.287.287,0,0,1-.3.293.293.293,0,1,1,0-.586A.287.287,0,0,1,296.947,767.531Z" transform="translate(-280.748 -767.238)"/>
      <path id="パス_58" data-name="パス 58" d="M337.75,771.553v-.147c.262,0,.376-.053.376-.287v-1.788c0-.153-.063-.264-.382-.264l-.018-.088,1.074-.264-.331,2.4c0,.234.085.287.382.287v.147Zm.856-4.022a.286.286,0,0,1-.3.293.293.293,0,1,1,0-.586A.287.287,0,0,1,338.606,767.531Z" transform="translate(-302.768 -767.238)"/>
      <path id="パス_59" data-name="パス 59" d="M302.641,771.612v-.146c.257,0,.282-.088.282-.341l-.378-3.148c0-.223-.025-.275-.254-.275l-.028-.083,1-.27v3l1.215-1.1a.2.2,0,0,0,.08-.141c0-.1-.154-.158-.382-.158v-.147h1.142v.147a.776.776,0,0,0-.588.276l-.719.651.954,1.325a.605.605,0,0,0,.536.258v.146h-1.178v-.146c.217,0,.271-.047.271-.158a.249.249,0,0,0-.052-.129l-.759-1.084-.519.469v.563c0,.252.114.341.382.341v.146Z" transform="translate(-284.013 -767.297)"/>
      <path id="パス_60" data-name="パス 60" d="M314.769,771.846a1.424,1.424,0,0,1-1.443,1.46,1.471,1.471,0,0,1,0-2.932A1.436,1.436,0,0,1,314.769,771.846Zm-2.374,0c0,.68.286,1.319.931,1.319s.925-.639.925-1.319-.286-1.331-.925-1.331S312.395,771.165,312.395,771.846Z" transform="translate(-289.15 -768.897)"/>
      <path id="パス_61" data-name="パス 61" d="M322.9,772.572c-.257.382-.145.734-.716.734a1.481,1.481,0,0,1-1.445-1.378,1.6,1.6,0,0,1,1.571-1.554c.417,0,.505.228.505.592,0,0,.081.62.006.474-.114-.212-.323-.914-.66-.914-.451,0-.857.463-.857,1.284,0,.744.343,1.261.982,1.261.343,0,.179-.117.528-.551Z" transform="translate(-293.783 -768.897)"/>
      <path id="パス_62" data-name="パス 62" d="M328.538,771.606v-.147c.273,0,.281-.082.281-.305l-.378-3.119c0-.251,0-.31-.26-.31l-.023-.094,1-.293v1.934a1.563,1.563,0,0,1,1.032-.5.663.663,0,0,1,.754.744v1.641c0,.212.12.305.383.305v.147h-1.019v-.147c.3,0,.293-.094.293-.305v-1.536c0-.351-.137-.568-.565-.568a1.149,1.149,0,0,0-.879.422v1.682c0,.223.113.305.393.305v.147Z" transform="translate(-297.708 -767.291)"/>
    </g>
  </g>
</svg>
