<svg xmlns="http://www.w3.org/2000/svg" width="44.693" height="50.099" viewBox="0 0 44.693 50.099">
  <g id="グループ_119" data-name="グループ 119" transform="translate(-231.342 -672.422)">
    <g id="グループ_4" data-name="グループ 4" transform="translate(238.238 712.393)">
      <g id="グループ_1" data-name="グループ 1" transform="translate(0 0.943)">
        <path id="パス_1" data-name="パス 1" d="M255.247,791.877h5.459v.29H250.546l-.156-1.206,4.34.685-.779-7.556,1.441-.169c-.01.048-.048.087-.144.1v3.123h3.861v.29h-3.861Z" transform="translate(-250.277 -783.808)" fill="#2b2b2b"/>
        <path id="パス_2" data-name="パス 2" d="M250.351,792.085a.113.113,0,0,1-.112-.1h0l-.156-1.206a.112.112,0,0,1,.033-.1h0a.115.115,0,0,1,.1-.031h0l4.194.663-.765-7.409a.114.114,0,0,1,.1-.124h0l1.442-.17a.114.114,0,0,1,.1.036h0a.113.113,0,0,1,.028.1h0a.227.227,0,0,1-.142.164h0v2.921h3.748a.111.111,0,0,1,.08.033h0a.115.115,0,0,1,.033.08h0v.29a.115.115,0,0,1-.033.081h0a.115.115,0,0,1-.08.033h-3.748v4.218h5.346a.115.115,0,0,1,.08.033h0a.116.116,0,0,1,.033.081h0v.29a.113.113,0,0,1-.033.08h0a.113.113,0,0,1-.08.033H250.351Zm.1-.227H260.4v-.064h-5.346a.115.115,0,0,1-.08-.032h0a.114.114,0,0,1-.033-.081h0v-4.444a.118.118,0,0,1,.033-.081h0a.115.115,0,0,1,.081-.033H258.8v-.063h-3.747a.115.115,0,0,1-.08-.033h0a.113.113,0,0,1-.033-.081h0V783.87l-1.06.124.768,7.446a.11.11,0,0,1-.035.093h0a.113.113,0,0,1-.095.029h0l-4.191-.663.124.958Z" transform="translate(-250.082 -783.613)" fill="#2b2b2b"/>
      </g>
      <g id="グループ_2" data-name="グループ 2" transform="translate(12.967)">
        <path id="パス_3" data-name="パス 3" d="M290.9,783.008l3.447-.658,1.068,1.087-9.148.014v-.519l3.96.13-.081-1.7.9.195c-.01.048-.047.088-.145.1Zm4.043,3.88-.052,3.59c0,.271,0,.725,0,.725l-2.27.023c.077-.045-.152-.645-.152-.645.423.01,1.053.067,1.332.067.142,0,.184.043.184-.17l.051-3.3h-6.621l-.842,4.081h-.621l-.312-4.373Zm-7.024-2.725h5.167v1.9h-5.167Zm4.879,1.61v-1.319H288.2v1.319Zm-.442,4.211h-3.429v.349h-.288V788h3.717Zm-.288-1.688h-3.141v1.4h3.141Z" transform="translate(-285.518 -781.245)" fill="#2b2b2b"/>
        <path id="パス_4" data-name="パス 4" d="M285.749,791.179a.114.114,0,0,1-.113-.1h0l-.312-4.373a.114.114,0,0,1,.031-.085h0a.115.115,0,0,1,.083-.036h9.307v0a.113.113,0,0,1,.079.034h0a.115.115,0,0,1,.033.081h0l-.052,3.588c0,.272,0,.726,0,.726h0a.113.113,0,0,1-.112.112h0l-2.27.023a.112.112,0,0,1-.11-.081h0a.113.113,0,0,1,.011-.089h0a3.148,3.148,0,0,0-.16-.548h0a.113.113,0,0,1,.013-.106h0a.114.114,0,0,1,.1-.048h0c.429.011,1.062.068,1.33.068h0l.068,0h0c0-.016,0-.036,0-.062h0l.05-3.183H287.3l-.823,3.991a.113.113,0,0,1-.111.091h-.621Zm.105-.226h.423l.823-3.992a.113.113,0,0,1,.111-.09h6.621a.113.113,0,0,1,.081.034h0a.11.11,0,0,1,.032.081h0l-.051,3.3a.421.421,0,0,1-.033.2h0a.177.177,0,0,1-.165.088h0c-.035,0-.063,0-.1,0h0c-.254,0-.765-.044-1.169-.062h0a2.408,2.408,0,0,1,.112.412h0l2.035-.021c0-.152,0-.427,0-.615h0l.051-3.475h-9.072l.3,4.148Zm2.587-.7a.111.111,0,0,1-.079-.033h0a.11.11,0,0,1-.034-.08h0v-2.329a.113.113,0,0,1,.033-.08h0a.115.115,0,0,1,.08-.033h3.717a.113.113,0,0,1,.08.033h0a.113.113,0,0,1,.033.08h0v1.979a.11.11,0,0,1-.033.08h0a.113.113,0,0,1-.08.033h-3.316v.237a.11.11,0,0,1-.034.08h0a.11.11,0,0,1-.079.033h-.288Zm.113-.227h.061v-.236a.112.112,0,0,1,.033-.08h0a.116.116,0,0,1,.081-.033h3.316v-1.753h-3.49v2.1Zm3.6-.236v0Zm-3.429-.178a.112.112,0,0,1-.08-.033h0a.112.112,0,0,1-.033-.08h0v-1.4a.116.116,0,0,1,.033-.081h0a.117.117,0,0,1,.081-.032h3.141v0a.116.116,0,0,1,.08.032h0a.116.116,0,0,1,.033.081h0v1.4a.115.115,0,0,1-.033.08h0a.114.114,0,0,1-.08.033h-3.141Zm.113-.226h2.915v-1.17h-2.915v1.17Zm-1.121-3.4a.114.114,0,0,1-.08-.033h0a.112.112,0,0,1-.033-.079h0v-1.9a.113.113,0,0,1,.033-.08h0a.114.114,0,0,1,.08-.033h5.167a.113.113,0,0,1,.08.033h0a.114.114,0,0,1,.034.08h0v1.9a.112.112,0,0,1-.034.079h0a.114.114,0,0,1-.08.033h-5.167Zm.113-.226h4.941V784.08h-4.941v1.675Zm.175-.065a.11.11,0,0,1-.08-.033h0a.11.11,0,0,1-.033-.08h0v-1.32a.112.112,0,0,1,.033-.08h0a.115.115,0,0,1,.081-.033H292.6a.114.114,0,0,1,.08.033h0a.111.111,0,0,1,.033.08h0v1.32a.113.113,0,0,1-.033.08h0a.111.111,0,0,1-.08.033h-4.591Zm4.591-.113v0Zm-4.478-.113h4.365V784.37h-4.365v1.095Zm-2.133-2.129a.115.115,0,0,1-.034-.08h0v-.519a.111.111,0,0,1,.035-.081h0a.113.113,0,0,1,.082-.032h0l3.837.126-.075-1.58a.113.113,0,0,1,.04-.091h0a.114.114,0,0,1,.1-.024h0l.9.2a.112.112,0,0,1,.087.133h0a.227.227,0,0,1-.142.163h0v1.13l3.312-.632a.111.111,0,0,1,.1.032h0l1.069,1.086a.115.115,0,0,1,.024.124h0a.114.114,0,0,1-.1.069h0l-9.148.014a.116.116,0,0,1-.08-.033Zm.193-.194,8.765-.014-.836-.851-3.387.647-.022-.111.022.111a.114.114,0,0,1-.093-.023h0a.115.115,0,0,1-.041-.088h0v-1.357a.122.122,0,0,1,.006-.036h0l-.528-.115.075,1.556a.114.114,0,0,1-.033.085h0a.109.109,0,0,1-.084.034h0l-3.843-.127v.29Z" transform="translate(-285.323 -781.05)" fill="#2b2b2b"/>
      </g>
      <g id="グループ_3" data-name="グループ 3" transform="translate(25.64 0.076)">
        <path id="パス_5" data-name="パス 5" d="M322.34,785.389v3.385c.414-.174.846-.368,1.279-.553l.067.262-2.535,2.531c0,.068.075.168.018.2l-1.1-1.449c.4-.155,1.422-.628,1.98-.861l-.459-3.511h-1.325v-.817l1.21.312-.212-1.748,1.322-.013c-.01.048-.1.191-.2.2v1.559l1.158.213v.292Zm2.508,4.975c0,.514.614.67.863.67a25.837,25.837,0,0,0,3.3-.6c.22-.142.365-.779.365-.779s1.144-.137,1.23-.12c-.077,1.321-.722,1.779-1.633,1.779h-3.215c-.922,0-1.2-.175-1.2-.96V786.61l-1.116.485-.124-.261,1.24-.534v-2.765l.432.039c-.01.047-.049.087-.144.1v2.5l1.51-.776-.28-3.833,1,.038c-.009.05-.047.088-.143.1v3.572l1.825-.729.077-.036.972-.4c0,.152-.031.016,0,0,.119-.068-.808,3.9-.9,4.256a.546.546,0,0,1-.557.486c-.24.009-.366.009-.6.009a1.1,1.1,0,0,0-.1-.3c.3.02.482.02.607.02.182,0,.307-.048.373-.329a26.631,26.631,0,0,0,.107-3.38l-1.807.71v3.641h-.289l-.284-3.514-1.51.775Z" transform="translate(-319.96 -781.45)" fill="#2b2b2b"/>
        <path id="パス_6" data-name="パス 6" d="M328.78,791.233h-3.215a1.673,1.673,0,0,1-1.015-.209h0a1,1,0,0,1-.3-.864h0v-3.573l-.957.417a.113.113,0,0,1-.147-.055h0l-.124-.261a.116.116,0,0,1,0-.089h0a.115.115,0,0,1,.062-.064h0l1.171-.5v-2.69a.114.114,0,0,1,.037-.084h0a.116.116,0,0,1,.087-.03h0l.432.04a.111.111,0,0,1,.08.046h0a.109.109,0,0,1,.02.091h0a.226.226,0,0,1-.141.162h0v2.228l1.279-.657-.275-3.759a.109.109,0,0,1,.032-.087h0a.115.115,0,0,1,.085-.035h0l1,.038a.114.114,0,0,1,.084.043h0a.114.114,0,0,1,.023.09h0a.222.222,0,0,1-.141.167h0v3.315l1.664-.663.082-.039.961-.392a.124.124,0,0,1,.056-.014h0a.119.119,0,0,1,.115.095h0a.225.225,0,0,1,0,.049h0c0,.413-.825,3.9-.917,4.252h0a.66.66,0,0,1-.663.574h0c-.242.008-.37.008-.6.008h0a.113.113,0,0,1-.112-.09h0a.984.984,0,0,0-.085-.268h0a.116.116,0,0,1,0-.115h0a.117.117,0,0,1,.1-.053h0c.3.019.475.019.6.019h0c.163-.017.185.007.265-.246h0a25.583,25.583,0,0,0,.1-3.184h0l-1.58.621v3.564a.115.115,0,0,1-.034.08h0a.111.111,0,0,1-.08.033h-.289a.114.114,0,0,1-.113-.1h0l-.271-3.345-1.3.666v3.812a.479.479,0,0,0,.28.429h0a1.057,1.057,0,0,0,.47.128h0c.154,0,1.816-.256,2.706-.443h0a3.262,3.262,0,0,0,.535-.138h0a.9.9,0,0,0,.22-.387h0a2.91,2.91,0,0,0,.1-.323h0a.112.112,0,0,1,.1-.087h0s1-.121,1.216-.123h.012a.168.168,0,0,1,.053.008h0a.113.113,0,0,1,.076.114h0c-.062,1.34-.773,1.886-1.707,1.886h-.039Zm-4.353-4.912a.112.112,0,0,1,.051.094h0v3.745c0,.384.069.576.21.685h0a1.515,1.515,0,0,0,.877.163h3.215c.841-.015,1.393-.365,1.51-1.551h0c-.25.017-.814.083-1.018.106h0a1.5,1.5,0,0,1-.393.772h0a2.729,2.729,0,0,1-.612.169h0c-.3.063-.686.134-1.07.2h0c-.775.133-1.529.247-1.682.248h0c-.273,0-.957-.156-.977-.783h0v-3.88a.114.114,0,0,1,.062-.1h0l1.51-.775a.115.115,0,0,1,.107,0h0a.116.116,0,0,1,.058.09h0l.275,3.409h.072v-3.527a.113.113,0,0,1,.072-.106h0l1.807-.709a.11.11,0,0,1,.1.011h0a.111.111,0,0,1,.05.094h0a26.2,26.2,0,0,1-.11,3.406h0a.454.454,0,0,1-.484.416h0c-.1,0-.236,0-.437-.01h0c.007.022.012.044.018.065h0c.176,0,.3,0,.5-.01h0c.236-.017.375-.088.452-.4h0c.081-.295.783-3.315.9-4.057h0l-.805.328-.083.039-1.825.729a.113.113,0,0,1-.106-.011h0a.11.11,0,0,1-.05-.094h0V781.51l-.619-.024.272,3.708a.112.112,0,0,1-.062.109h0l-1.51.777a.115.115,0,0,1-.111,0h0a.114.114,0,0,1-.054-.1h0V783.47h0l-.061-.006v2.641a.113.113,0,0,1-.068.1h0l-1.132.486.027.057,1.015-.442a.113.113,0,0,1,.045-.009h0a.114.114,0,0,1,.062.019Zm-3.543,4.762-1.1-1.449a.116.116,0,0,1-.019-.1h0a.111.111,0,0,1,.068-.074h0c.377-.145,1.324-.583,1.9-.826h0l-.434-3.328h-1.225a.11.11,0,0,1-.079-.033h0a.11.11,0,0,1-.034-.08h0v-.816a.115.115,0,0,1,.044-.09h0a.115.115,0,0,1,.1-.02h0l1.048.271-.192-1.583a.112.112,0,0,1,.027-.088h0a.111.111,0,0,1,.084-.039h0l1.323-.013a.113.113,0,0,1,.088.042h0a.114.114,0,0,1,.024.095h0a.434.434,0,0,1-.194.253h0v1.39l1.065.2a.113.113,0,0,1,.092.112h0v.291a.109.109,0,0,1-.033.08h0a.111.111,0,0,1-.08.033h-1.1v3.1c.364-.156.742-.323,1.12-.486h0a.112.112,0,0,1,.095,0h0a.112.112,0,0,1,.059.073h0l.067.262a.112.112,0,0,1-.029.108h0l-2.491,2.487a.485.485,0,0,1,.027.123h0a.157.157,0,0,1-.079.137h0a.116.116,0,0,1-.055.014h0a.112.112,0,0,1-.09-.045Zm.01-.362,2.473-2.468-.018-.072c-.391.17-.782.343-1.158.5h0a.111.111,0,0,1-.107-.01h0a.111.111,0,0,1-.05-.094h0v-3.385a.112.112,0,0,1,.033-.08h0a.115.115,0,0,1,.08-.033h1.1V785l-1.066-.2a.114.114,0,0,1-.092-.112h0V783.13a.114.114,0,0,1,.039-.086h0l-.925.009.2,1.623a.113.113,0,0,1-.037.1h0a.114.114,0,0,1-.1.024h0l-1.069-.275v.557H321.4a.114.114,0,0,1,.112.1h0l.458,3.511a.114.114,0,0,1-.068.119h0c-.5.209-1.374.613-1.844.807h0l.835,1.1Zm1.252-5.414v0Z" transform="translate(-319.765 -781.256)" fill="#2b2b2b"/>
      </g>
    </g>
    <g id="グループ_51" data-name="グループ 51" transform="translate(231.342 672.422)">
      <g id="グループ_5" data-name="グループ 5" transform="translate(14.736 6.804)">
        <path id="パス_7" data-name="パス 7" d="M285.792,701.711a11.29,11.29,0,0,0,6.067,1.828,13.76,13.76,0,0,0,6.738-1.974l-.617-1a13.992,13.992,0,0,1-6.121,1.529h0a12.216,12.216,0,0,1-6.549-1.967,11.475,11.475,0,0,0-6.175-1.827,11.674,11.674,0,0,0-1.97.171l-1.3,1.7a13.377,13.377,0,0,1,3.273-.423A12.391,12.391,0,0,1,285.792,701.711Zm0-2.366a11.3,11.3,0,0,0,6.067,1.83,13.018,13.018,0,0,0,5.634-1.4l-5.453-8.828a.077.077,0,0,0-.053-.035.076.076,0,0,0-.06.018l-7.635,6.608-4.6-2.265a.074.074,0,0,0-.093.021l-1.642,2.14c.383-.037.775-.059,1.176-.06A12.4,12.4,0,0,1,285.792,699.345Zm13.29,3.006a14.692,14.692,0,0,1-7.223,2.109h-.007a12.209,12.209,0,0,1-6.547-1.968,11.473,11.473,0,0,0-6.173-1.825,12.689,12.689,0,0,0-4.237.756l-1.515,1.975a14.225,14.225,0,0,1,5.75-1.289,12.4,12.4,0,0,1,6.663,1.964,11.262,11.262,0,0,0,6.067,1.829,14.631,14.631,0,0,0,7.8-2.616Zm-19.952.682a14.018,14.018,0,0,0-7.083,2.1l-.64.835a.075.075,0,0,0-.008.079.077.077,0,0,0,.068.042l6.639.024h9.764a13.659,13.659,0,0,1-2.564-1.259A11.474,11.474,0,0,0,279.129,703.033ZM301.336,706l-1.191-1.929A18.856,18.856,0,0,1,296,706.117h5.273a.076.076,0,0,0,.066-.039A.077.077,0,0,0,301.336,706Z" transform="translate(-271.39 -690.914)" fill="#2b2b2b"/>
      </g>
      <g id="グループ_23" data-name="グループ 23" transform="translate(15.294 24.513)">
        <g id="グループ_6" data-name="グループ 6" transform="translate(1.302 4.347)">
          <rect id="長方形_1" data-name="長方形 1" width="26.5" height="0.77" transform="translate(0.047 0.046)" fill="#2b2b2b"/>
          <path id="パス_8" data-name="パス 8" d="M276.492,751.718a.048.048,0,0,1-.032-.013h0a.048.048,0,0,1-.014-.033h0V750.9a.046.046,0,0,1,.014-.033h0a.044.044,0,0,1,.032-.013h26.5a.047.047,0,0,1,.033.013h0a.044.044,0,0,1,.013.033h0v.771a.048.048,0,0,1-.013.033h0a.05.05,0,0,1-.033.013h-26.5Zm26.5-.046v0Zm-26.455-.046h26.408v-.679H276.538v.679Z" transform="translate(-276.446 -750.855)" fill="#2b2b2b"/>
        </g>
        <g id="グループ_7" data-name="グループ 7" transform="translate(0.217 6.639)">
          <path id="パス_9" data-name="パス 9" d="M301.759,758.037l-28.134.042.1-.77,27.973-.1Z" transform="translate(-273.578 -757.166)" fill="#2b2b2b"/>
          <path id="パス_10" data-name="パス 10" d="M273.508,758.029a.043.043,0,0,1-.011-.038h0l.1-.771a.047.047,0,0,1,.047-.042h0l27.974-.095a.048.048,0,0,1,.047.045h0l.056.823-.047,0,.047,0a.049.049,0,0,1-.013.036h0a.051.051,0,0,1-.035.015h0l-28.134.042a.044.044,0,0,1-.035-.016Zm.181-.755-.091.676,28.028-.042-.05-.729-27.888.094Z" transform="translate(-273.496 -757.084)" fill="#2b2b2b"/>
        </g>
        <g id="グループ_8" data-name="グループ 8" transform="translate(19.634 4.638)">
          <rect id="長方形_2" data-name="長方形 2" width="0.699" height="2.599" transform="translate(0.013 0.013)" fill="#2b2b2b"/>
          <path id="パス_11" data-name="パス 11" d="M326.267,754.257l.014-2.612h.7v.013h.014l-.014,2.613-.712-.014Zm.014-.014.684.014v-2.585l-.67-.014-.014,2.586Z" transform="translate(-326.267 -751.645)" fill="#2b2b2b"/>
        </g>
        <g id="グループ_9" data-name="グループ 9" transform="translate(16.795 4.638)">
          <rect id="長方形_3" data-name="長方形 3" width="0.7" height="2.599" transform="translate(0.014 0.013)" fill="#2b2b2b"/>
          <path id="パス_12" data-name="パス 12" d="M318.551,754.257l.014-2.612h.7v.013h.014l-.014,2.613-.714-.014Zm.014-.014.686.014v-2.585l-.673-.014-.013,2.586Z" transform="translate(-318.551 -751.645)" fill="#2b2b2b"/>
        </g>
        <g id="グループ_10" data-name="グループ 10" transform="translate(13.956 4.638)">
          <rect id="長方形_4" data-name="長方形 4" width="0.7" height="2.599" transform="translate(0.014 0.013)" fill="#2b2b2b"/>
          <path id="パス_13" data-name="パス 13" d="M310.835,754.257l.015-2.612h.7v.013h.014l-.014,2.613-.714-.014Zm.015-.014.685.014v-2.585l-.672-.014-.013,2.586Z" transform="translate(-310.835 -751.645)" fill="#2b2b2b"/>
        </g>
        <g id="グループ_11" data-name="グループ 11" transform="translate(11.117 4.638)">
          <rect id="長方形_5" data-name="長方形 5" width="0.7" height="2.599" transform="translate(0.014 0.013)" fill="#2b2b2b"/>
          <path id="パス_14" data-name="パス 14" d="M303.121,754.257l.014-2.612h.7v.013h.014l-.014,2.613-.714-.014Zm.014-.014.686.014v-2.585l-.673-.014-.014,2.586Z" transform="translate(-303.121 -751.645)" fill="#2b2b2b"/>
        </g>
        <g id="グループ_12" data-name="グループ 12" transform="translate(8.279 4.638)">
          <rect id="長方形_6" data-name="長方形 6" width="0.701" height="2.599" transform="translate(0.014 0.013)" fill="#2b2b2b"/>
          <path id="パス_15" data-name="パス 15" d="M295.406,754.257l.014-2.612h.7v.013h.014l-.014,2.613-.715-.014Zm.014-.014.687.014v-2.585l-.673-.014-.013,2.586Z" transform="translate(-295.406 -751.645)" fill="#2b2b2b"/>
        </g>
        <g id="グループ_17" data-name="グループ 17" transform="translate(0 0.012)">
          <g id="グループ_13" data-name="グループ 13" transform="translate(0.303 0.544)">
            <rect id="長方形_7" data-name="長方形 7" width="6.757" height="1.024" transform="translate(0.026 6.758) rotate(-84.995)" fill="#2b2b2b"/>
            <path id="パス_16" data-name="パス 16" d="M274.774,747.427l-1.018-.09a.026.026,0,0,1-.024-.029h0l.588-6.731a.026.026,0,0,1,.029-.024h0l1.021.09,0,.026,0-.026a.024.024,0,0,1,.018.01h0a.023.023,0,0,1,.006.02h0l-.589,6.73a.028.028,0,0,1-.009.018h0a.029.029,0,0,1-.018.006h0Zm-.987-.141.965.085.585-6.677-.968-.086-.583,6.678Z" transform="translate(-273.731 -740.553)" fill="#2b2b2b"/>
          </g>
          <g id="グループ_14" data-name="グループ 14" transform="translate(4.461 0.544)">
            <rect id="長方形_8" data-name="長方形 8" width="1.024" height="6.757" transform="translate(0.027 0.116) rotate(-5.001)" fill="#2b2b2b"/>
            <path id="パス_17" data-name="パス 17" d="M285.631,747.42a.025.025,0,0,1-.01-.018h0l-.59-6.73a.028.028,0,0,1,.025-.029h0l1.02-.09a.027.027,0,0,1,.029.024h0l.588,6.731a.026.026,0,0,1-.006.02h0a.026.026,0,0,1-.018.009h0l-1.019.09h0a.025.025,0,0,1-.017-.006Zm-.544-6.727.585,6.677.966-.085-.584-6.677-.967.086Z" transform="translate(-285.031 -740.553)" fill="#2b2b2b"/>
          </g>
          <g id="グループ_15" data-name="グループ 15" transform="translate(0.086)">
            <path id="パス_18" data-name="パス 18" d="M279.678,740.185l-6.468-.016v-1.025h6.171Z" transform="translate(-273.184 -739.119)" fill="#2b2b2b"/>
            <path id="パス_19" data-name="パス 19" d="M273.165,740.15a.025.025,0,0,1-.025-.025h0V739.1a.026.026,0,0,1,.007-.019h0a.028.028,0,0,1,.018-.007h6.171l.025.02.3,1.04-.024.007v0l.024-.007a.024.024,0,0,1,0,.022h0a.025.025,0,0,1-.021.011h0l-6.468-.017Zm.026-.051,6.409.016-.283-.99h-6.126v.974Z" transform="translate(-273.14 -739.074)" fill="#2b2b2b"/>
          </g>
          <g id="グループ_16" data-name="グループ 16" transform="translate(0 2.416)">
            <rect id="長方形_9" data-name="長方形 9" width="6.342" height="1.024" transform="translate(0.026 0.027)" fill="#2b2b2b"/>
            <path id="パス_20" data-name="パス 20" d="M272.933,746.715a.026.026,0,0,1-.018-.007h0a.025.025,0,0,1-.008-.019h0v-1.024a.03.03,0,0,1,.007-.019h0a.029.029,0,0,1,.019-.007h6.341a.026.026,0,0,1,.019.008h0a.028.028,0,0,1,.007.019h0v1.024a.028.028,0,0,1-.007.019h0a.029.029,0,0,1-.019.007h-6.341Zm6.341-.026v0Zm-6.316-.026h6.29v-.973h-6.29v.973Z" transform="translate(-272.907 -745.639)" fill="#2b2b2b"/>
          </g>
        </g>
        <g id="グループ_22" data-name="グループ 22" transform="translate(22.021)">
          <g id="グループ_18" data-name="グループ 18" transform="translate(0.596 0.566)">
            <rect id="長方形_10" data-name="長方形 10" width="6.758" height="1.023" transform="matrix(0.083, -0.997, 0.997, 0.083, 0.027, 6.761)" fill="#2b2b2b"/>
            <path id="パス_21" data-name="パス 21" d="M335.418,747.451l-1.02-.083a.027.027,0,0,1-.024-.029h0l.56-6.735a.026.026,0,0,1,.029-.024h0l1.019.085,0,.027,0-.027a.022.022,0,0,1,.018.009h0a.023.023,0,0,1,.006.019h0l-.561,6.733a.028.028,0,0,1-.009.019h0a.025.025,0,0,1-.017.006h0Zm-.988-.135.965.079.556-6.68-.966-.081-.556,6.681Z" transform="translate(-334.374 -740.58)" fill="#2b2b2b"/>
          </g>
          <g id="グループ_19" data-name="グループ 19" transform="translate(4.727 0.547)">
            <rect id="長方形_11" data-name="長方形 11" width="1.023" height="6.757" transform="translate(0.027 0.121) rotate(-5.236)" fill="#2b2b2b"/>
            <path id="パス_22" data-name="パス 22" d="M346.229,747.4a.025.025,0,0,1-.01-.018h0l-.617-6.728a.026.026,0,0,1,.024-.029h0l1.018-.094a.028.028,0,0,1,.029.025h0l.616,6.727a.027.027,0,0,1-.006.02h0a.023.023,0,0,1-.018.009h0l-1.019.093h0a.022.022,0,0,1-.016-.007Zm-.571-6.724.612,6.674.965-.089-.612-6.674-.965.088Z" transform="translate(-345.603 -740.527)" fill="#2b2b2b"/>
          </g>
          <g id="グループ_20" data-name="グループ 20">
            <path id="パス_23" data-name="パス 23" d="M339.349,740.136l-6.524.026.348-1.024,6.172-.024Z" transform="translate(-332.799 -739.087)" fill="#2b2b2b"/>
            <path id="パス_24" data-name="パス 24" d="M332.759,740.131a.028.028,0,0,1,0-.024h0l.348-1.025.024-.017,6.172-.024a.026.026,0,0,1,.026.026h0l0,1.023h0a.023.023,0,0,1-.008.018h0a.022.022,0,0,1-.017.008h0l-6.524.025a.027.027,0,0,1-.021-.01Zm.388-1.014-.33.973,6.462-.025,0-.973-6.128.025Z" transform="translate(-332.755 -739.041)" fill="#2b2b2b"/>
          </g>
          <g id="グループ_21" data-name="グループ 21" transform="translate(0.273 2.415)">
            <rect id="長方形_12" data-name="長方形 12" width="6.342" height="1.023" transform="matrix(1, -0.004, 0.004, 1, 0.026, 0.052)" fill="#2b2b2b"/>
            <path id="パス_25" data-name="パス 25" d="M333.508,746.7a.028.028,0,0,1-.007-.019h0l0-1.022a.026.026,0,0,1,.026-.027h0l6.342-.025a.027.027,0,0,1,.026.025h0l.006,1.022h-.027v0h.027a.025.025,0,0,1-.008.02h0a.026.026,0,0,1-.018.007h0l-6.343.026a.03.03,0,0,1-.018-.007Zm.042-1.016,0,.97,6.291-.025-.005-.971-6.289.026Z" transform="translate(-333.497 -745.603)" fill="#2b2b2b"/>
          </g>
        </g>
        <path id="パス_26" data-name="パス 26" d="M288.692,739.642l.469-.589s.045.036.142.107h0c.1.071.245.174.436.3h0a14.135,14.135,0,0,0,1.642.913h0a13.211,13.211,0,0,0,5.614,1.328h0a15.767,15.767,0,0,0,7.622-2.248h0c.422-.25.646-.409.646-.409h0l.436.612a16.756,16.756,0,0,1-8.7,2.8h0a14.564,14.564,0,0,1-8.3-2.808Z" transform="translate(-282.884 -739.041)" fill="#2b2b2b"/>
      </g>
      <g id="グループ_25" data-name="グループ 25" transform="translate(10.313 8.493)">
        <g id="グループ_24" data-name="グループ 24" transform="translate(0.071 0.064)">
          <path id="パス_27" data-name="パス 27" d="M260.562,695.781a.109.109,0,0,1,.108-.1h.884a.108.108,0,0,1,.106.1l.664,23.468a.1.1,0,0,1-.1.1h-2.561a.1.1,0,0,1-.1-.1Z" transform="translate(-259.564 -695.678)" fill="#2b2b2b"/>
        </g>
        <path id="パス_28" data-name="パス 28" d="M259.371,719.306l1.009-23.741,0-.061H261.6l.674,23.8Zm.133-.128h2.635l-.667-23.546h-.966l-1,23.546Z" transform="translate(-259.371 -695.504)" fill="#2b2b2b"/>
      </g>
      <g id="グループ_27" data-name="グループ 27" transform="translate(5.016 12.993)">
        <g id="グループ_26" data-name="グループ 26" transform="translate(0.123 0.135)">
          <path id="パス_29" data-name="パス 29" d="M252.935,715.991a.392.392,0,0,0,.184-.071l3.107-2.435a.107.107,0,0,0,.019-.146l-.379-.5a.107.107,0,0,0-.146-.023l-2.637,1.874a.136.136,0,0,1-.161-.009l-7.327-6.552a.1.1,0,0,0-.145.009l-.116.132a.128.128,0,0,0,0,.158l6.158,7.587a.223.223,0,0,0,.168.073Z" transform="translate(-245.307 -708.1)" fill="#2b2b2b"/>
        </g>
        <path id="パス_30" data-name="パス 30" d="M244.973,708.112l.329-.378,7.491,6.7,2.814-2,.578.768-3.319,2.6-.015.011-1.536.112-6.342-7.815Zm.167,0,6.233,7.68,1.43-.1,3.2-2.512-.428-.568-2.8,1.987-7.47-6.68-.173.2Z" transform="translate(-244.973 -707.734)" fill="#2b2b2b"/>
      </g>
      <g id="グループ_29" data-name="グループ 29" transform="translate(8.924 9.073)">
        <g id="グループ_28" data-name="グループ 28" transform="translate(0.1 0.16)">
          <path id="パス_31" data-name="パス 31" d="M259.43,703.556a.262.262,0,0,0,.171-.078l3.692-4.215a.175.175,0,0,0,.025-.172l-.1-.214a.065.065,0,0,0-.114-.019l-3.531,3.666a.106.106,0,0,1-.147,0l-.955-.9a.784.784,0,0,1-.125-.161l-2.163-3.913a.068.068,0,0,0-.118-.013l-.158.181a.192.192,0,0,0-.033.175l2,5.556a.161.161,0,0,0,.138.1Z" transform="translate(-255.868 -697.515)" fill="#2b2b2b"/>
        </g>
        <path id="パス_32" data-name="パス 32" d="M257.7,703.341l-2.1-5.829.379-.433,2.295,4.157,1.06,1,3.7-3.837.239.526-3.855,4.4-.019.022-1.692,0Zm1.663-.06v0Zm-3.619-5.741,2.046,5.673,1.544,0,3.782-4.317-.127-.279-3.653,3.792-1.164-1.1-2.219-4.013-.209.238Z" transform="translate(-255.596 -697.08)" fill="#2b2b2b"/>
      </g>
      <g id="グループ_31" data-name="グループ 31" transform="translate(10.658 3.47)">
        <g id="グループ_30" data-name="グループ 30" transform="translate(0.079 0.079)">
          <path id="パス_33" data-name="パス 33" d="M261.741,687.73c.65.577,1.757-1.969,1.843-2.506.138-.848-.186-3.029-1.386-3.154-1.014-.1-1.694,1.9-1.676,2.6a3.8,3.8,0,0,0,1.291,3.157" transform="translate(-260.522 -682.065)" fill="#2b2b2b"/>
        </g>
        <path id="パス_34" data-name="パス 34" d="M261.648,687.718l-.024.024a3.879,3.879,0,0,1-1.315-3.207h0V684.5h0c.014-.732.618-2.617,1.679-2.65h0a.786.786,0,0,1,.085,0h0c1.118.138,1.479,1.8,1.486,2.806h0a2.813,2.813,0,0,1-.03.44h0a6.489,6.489,0,0,1-.61,1.5h0c-.328.59-.7,1.137-1.1,1.155h0a.373.373,0,0,1-.164-.039Zm-.094-.065h0Zm.261-.053c.247.017.657-.489.964-1.074h0a6.385,6.385,0,0,0,.593-1.451h0a2.624,2.624,0,0,0,.029-.415h0c.007-.982-.4-2.573-1.345-2.649h0c-.024,0-.046,0-.069,0h0c-.423-.005-.815.431-1.09.979h0a3.959,3.959,0,0,0-.432,1.514h0c0,.01,0,.018,0,.026h0a3.7,3.7,0,0,0,1.183,3.019h0l.009-.011a.232.232,0,0,0,.157.065Z" transform="translate(-260.308 -681.852)" fill="#2b2b2b"/>
      </g>
      <g id="グループ_33" data-name="グループ 33" transform="translate(15.17 7.094)">
        <g id="グループ_32" data-name="グループ 32" transform="translate(0.064 0.064)">
          <path id="パス_35" data-name="パス 35" d="M272.785,696.127c.118.825,2.205-.457,2.549-.814.545-.564,1.5-2.418.775-3.224-.608-.682-2.124.438-2.486.981a4.085,4.085,0,0,0-.839,3.169" transform="translate(-272.745 -691.876)" fill="#2b2b2b"/>
        </g>
        <path id="パス_36" data-name="パス 36" d="M272.639,696.133l-.03,0a6.639,6.639,0,0,1-.039-.686h0a4.148,4.148,0,0,1,.889-2.525h0a3.188,3.188,0,0,1,2.023-1.224h0a.724.724,0,0,1,.564.236h0a1.209,1.209,0,0,1,.277.83h0a4.345,4.345,0,0,1-1.053,2.48h0a4.892,4.892,0,0,1-2.232,1.1h-.019a.388.388,0,0,1-.379-.219Zm.4.091a4.853,4.853,0,0,0,2.14-1.066h0a4.23,4.23,0,0,0,1.017-2.391h0a1.081,1.081,0,0,0-.244-.745h0a.6.6,0,0,0-.468-.192h0A3.093,3.093,0,0,0,273.566,693h0a4.021,4.021,0,0,0-.868,2.454h0c0,.174.01.358.028.559h0l.011,0c.028.161.116.21.3.216Z" transform="translate(-272.57 -691.701)" fill="#2b2b2b"/>
      </g>
      <g id="グループ_35" data-name="グループ 35" transform="translate(14.413 12.976)">
        <g id="グループ_34" data-name="グループ 34" transform="translate(0.054 0.055)">
          <path id="パス_37" data-name="パス 37" d="M270.676,710.836c-.023.7,1.889.045,2.225-.184.533-.361,1.592-1.712,1.114-2.515-.405-.68-1.82-.044-2.2.335a3.289,3.289,0,0,0-1.157,2.458" transform="translate(-270.659 -707.837)" fill="#2b2b2b"/>
        </g>
        <path id="パス_38" data-name="パス 38" d="M270.537,710.833l-.025,0a3.343,3.343,0,0,1,1.173-2.492h0a2.766,2.766,0,0,1,1.608-.652h0a.741.741,0,0,1,.677.327h0a.957.957,0,0,1,.128.495h0a3.2,3.2,0,0,1-1.258,2.093h0a4.46,4.46,0,0,1-1.773.509h0c-.255,0-.483-.071-.528-.278Zm.1-.088v.008h0c0,.178.149.245.429.25h0a4.4,4.4,0,0,0,1.713-.491h0a3.11,3.11,0,0,0,1.211-2h0a.842.842,0,0,0-.113-.44h0a.628.628,0,0,0-.583-.273h0a2.678,2.678,0,0,0-1.531.62h0a3.205,3.205,0,0,0-1.134,2.329h.01Z" transform="translate(-270.512 -707.687)" fill="#2b2b2b"/>
      </g>
      <g id="グループ_37" data-name="グループ 37" transform="translate(0 14.337)">
        <g id="グループ_36" data-name="グループ 36" transform="translate(0.065 0.065)">
          <path id="パス_39" data-name="パス 39" d="M236.364,713.027c.436.671-1.821,1.474-2.284,1.5-.733.049-2.557-.472-2.562-1.621,0-.974,1.754-1.422,2.346-1.335a3.173,3.173,0,0,1,2.572,1.531" transform="translate(-231.518 -711.563)" fill="#2b2b2b"/>
        </g>
        <path id="パス_40" data-name="パス 40" d="M231.344,712.808a.046.046,0,0,1,0-.012h0c.022-.972,1.532-1.4,2.247-1.409h0a1.033,1.033,0,0,1,.173.012h0a3.238,3.238,0,0,1,2.615,1.557h0l-.025.018a.371.371,0,0,1,.02.119h0c-.014.38-.514.689-1.048.947h0a5.1,5.1,0,0,1-1.351.443h0c-.033,0-.068,0-.1,0h0c-.8-.006-2.5-.516-2.525-1.678Zm.128-.011a1.412,1.412,0,0,0,.9,1.168h0a3.582,3.582,0,0,0,1.494.393h0c.034,0,.067,0,.1,0h0a5.028,5.028,0,0,0,1.3-.431h0c.529-.241.988-.581.974-.83h0a.259.259,0,0,0-.045-.143h0l.011-.007a3.081,3.081,0,0,0-2.466-1.417h0a.965.965,0,0,0-.155-.01h0a3.334,3.334,0,0,0-1.325.329h0c-.451.221-.8.543-.793.95h0Z" transform="translate(-231.342 -711.387)" fill="#2b2b2b"/>
      </g>
      <g id="グループ_39" data-name="グループ 39" transform="translate(3.033 17.898)">
        <g id="グループ_38" data-name="グループ 38" transform="translate(0.064 0.064)">
          <path id="パス_41" data-name="パス 41" d="M244.008,721.48c.683.3-.848,2.359-1.224,2.665-.6.488-2.382,1.163-2.925.193-.459-.819.815-2.272,1.356-2.559a2.922,2.922,0,0,1,2.891-.278" transform="translate(-239.761 -721.238)" fill="#2b2b2b"/>
        </g>
        <path id="パス_42" data-name="パス 42" d="M239.692,724.259a.873.873,0,0,1-.106-.431h0a3.364,3.364,0,0,1,1.488-2.216h0a3.612,3.612,0,0,1,1.724-.548h0a3.386,3.386,0,0,1,1.221.267h0l-.012.031a.393.393,0,0,1,.128.318h0a5.3,5.3,0,0,1-1.421,2.405h0a3.592,3.592,0,0,1-1.969.7h0a1.123,1.123,0,0,1-1.048-.527Zm1.441-2.535a3.28,3.28,0,0,0-1.419,2.1h0a.744.744,0,0,0,.09.369h0a.993.993,0,0,0,.94.461h0a3.475,3.475,0,0,0,1.889-.672h0a5.305,5.305,0,0,0,1.373-2.306h0a.24.24,0,0,0-.135-.251h0l.006-.014a3.117,3.117,0,0,0-1.081-.223h0a3.5,3.5,0,0,0-1.664.533Z" transform="translate(-239.586 -721.064)" fill="#2b2b2b"/>
      </g>
      <g id="グループ_41" data-name="グループ 41" transform="translate(6.228 20.631)">
        <g id="グループ_40" data-name="グループ 40" transform="translate(0.064 0.064)">
          <path id="パス_43" data-name="パス 43" d="M251.487,728.684c.745.008.148,2.5-.077,2.932-.356.684-1.732,2.006-2.613,1.327-.743-.571-.144-2.409.239-2.886a2.919,2.919,0,0,1,2.549-1.393" transform="translate(-248.443 -728.664)" fill="#2b2b2b"/>
        </g>
        <path id="パス_44" data-name="パス 44" d="M248.647,732.884a1.2,1.2,0,0,1-.379-.992h0a3.846,3.846,0,0,1,.607-1.986h0a2.986,2.986,0,0,1,2.6-1.416h0v.035c.259.078.329.423.329.813h0a6.709,6.709,0,0,1-.447,2.2h0a3.052,3.052,0,0,1-2.111,1.55h0a.959.959,0,0,1-.6-.2Zm.328-2.9a3.74,3.74,0,0,0-.579,1.906h0a1.077,1.077,0,0,0,.329.89h0a.83.83,0,0,0,.52.176h0a2.952,2.952,0,0,0,2-1.482h0a6.678,6.678,0,0,0,.433-2.137h0a1.417,1.417,0,0,0-.076-.519h0c-.055-.124-.118-.178-.224-.181h0v-.015a2.838,2.838,0,0,0-2.4,1.363Z" transform="translate(-248.268 -728.49)" fill="#2b2b2b"/>
      </g>
      <g id="グループ_43" data-name="グループ 43" transform="translate(5.683 5.427)">
        <g id="グループ_42" data-name="グループ 42" transform="translate(0.064 0.064)">
          <path id="パス_45" data-name="パス 45" d="M250.689,691.406c-.077.829-2.217-.31-2.576-.644-.57-.525-1.608-2.312-.932-3.166.574-.722,2.136.3,2.523.816a4.043,4.043,0,0,1,.992,3.107" transform="translate(-246.96 -687.346)" fill="#2b2b2b"/>
        </g>
        <path id="パス_46" data-name="パス 46" d="M250.176,691.656a4.963,4.963,0,0,1-2.216-.956h0a4.186,4.186,0,0,1-1.173-2.5h0a1.182,1.182,0,0,1,.234-.754h0a.757.757,0,0,1,.622-.274h0a3.19,3.19,0,0,1,2,1.091h0a4.055,4.055,0,0,1,1.016,2.744h0c0,.128,0,.262-.011.4h0l-.03,0a.418.418,0,0,1-.424.247h-.02Zm-2.533-4.355a.627.627,0,0,0-.521.226h0a1.056,1.056,0,0,0-.207.674h0a4.079,4.079,0,0,0,1.132,2.4h0a4.918,4.918,0,0,0,2.129.923h0c.216-.008.319-.063.339-.239h.012c0-.1.006-.193.006-.284h0a3.921,3.921,0,0,0-.99-2.667h0a3.112,3.112,0,0,0-1.891-1.04h-.009Z" transform="translate(-246.786 -687.172)" fill="#2b2b2b"/>
      </g>
      <g id="グループ_45" data-name="グループ 45" transform="translate(6.968 11.689)">
        <g id="グループ_44" data-name="グループ 44" transform="translate(0.055 0.054)">
          <path id="パス_47" data-name="パス 47" d="M253.572,707.759c-.065.7-1.869-.262-2.172-.541-.48-.443-1.356-1.951-.787-2.669.484-.61,1.8.249,2.128.686a3.409,3.409,0,0,1,.836,2.62" transform="translate(-250.427 -704.337)" fill="#2b2b2b"/>
        </g>
        <path id="パス_48" data-name="パス 48" d="M253.137,707.969a4.2,4.2,0,0,1-1.868-.806h0a3.531,3.531,0,0,1-.991-2.108h0a1,1,0,0,1,.2-.634h0a.64.64,0,0,1,.526-.233h0a2.693,2.693,0,0,1,1.687.919h0a3.417,3.417,0,0,1,.857,2.312h0c0,.109,0,.223-.01.343h-.024a.351.351,0,0,1-.356.207h-.019ZM251,704.3a.529.529,0,0,0-.442.191h0a.885.885,0,0,0-.174.567h0a3.442,3.442,0,0,0,.955,2.028h0a4.144,4.144,0,0,0,1.795.778h0c.183-.007.269-.053.287-.2h0l.009,0c0-.083,0-.163,0-.241h0a3.31,3.31,0,0,0-.833-2.247h0a2.618,2.618,0,0,0-1.594-.875H251Z" transform="translate(-250.278 -704.189)" fill="#2b2b2b"/>
      </g>
      <g id="グループ_47" data-name="グループ 47" transform="translate(1.739 9.089)">
        <g id="グループ_46" data-name="グループ 46" transform="translate(0.073 0.073)">
          <path id="パス_49" data-name="パス 49" d="M240.513,701.848c-.1.935-2.546-.315-2.957-.685-.647-.583-1.816-2.581-1.024-3.551.669-.82,2.454.3,2.89.88a4.387,4.387,0,0,1,1.1,3.483" transform="translate(-236.267 -697.322)" fill="#2b2b2b"/>
        </g>
        <path id="パス_50" data-name="パス 50" d="M239.9,702.135a5.654,5.654,0,0,1-2.521-1.044h0a4.559,4.559,0,0,1-1.314-2.772h0a1.355,1.355,0,0,1,.282-.879h0a.906.906,0,0,1,.735-.317h0a3.6,3.6,0,0,1,2.27,1.2h0a4.4,4.4,0,0,1,1.131,2.986h0c0,.172-.008.353-.02.546h0l-.034,0a.5.5,0,0,1-.507.284H239.9Zm-2.818-4.866a.756.756,0,0,0-.621.263h0a1.2,1.2,0,0,0-.25.786h0a4.439,4.439,0,0,0,1.266,2.663h0a5.589,5.589,0,0,0,2.423,1.007h0c.258-.007.386-.075.412-.275h.013c.008-.142.012-.278.012-.408h0a4.251,4.251,0,0,0-1.1-2.9h0a3.505,3.505,0,0,0-2.144-1.14h-.01Z" transform="translate(-236.067 -697.123)" fill="#2b2b2b"/>
      </g>
      <g id="グループ_48" data-name="グループ 48" transform="translate(25.829 8.086)">
        <path id="パス_51" data-name="パス 51" d="M304.218,697.386c.018.1-.041.143-.131.1l-.744-.382a.392.392,0,0,0-.325,0l-.735.394c-.089.047-.149.005-.132-.094l.134-.826a.394.394,0,0,0-.1-.308l-.6-.577c-.073-.07-.051-.139.049-.155l.824-.127a.39.39,0,0,0,.262-.193l.363-.752c.044-.091.117-.091.162,0l.376.744a.39.39,0,0,0,.264.188l.829.114c.1.014.123.083.052.155l-.594.588a.391.391,0,0,0-.1.31Z" transform="translate(-301.536 -694.398)" fill="#2b2b2b"/>
      </g>
      <g id="グループ_50" data-name="グループ 50" transform="translate(19.719)">
        <g id="グループ_49" data-name="グループ 49">
          <path id="パス_52" data-name="パス 52" d="M292.691,675.336a.045.045,0,0,0-.006-.021c0-.005-.38-.026-.822-.047l-.545-.025a.6.6,0,0,1-.571-.808l.159-.523c.129-.424.234-.776.234-.782s-.014-.019-.02-.021-.308.224-.66.493l-.435.331a.6.6,0,0,1-.957-.252l-.215-.5c-.174-.407-.323-.749-.332-.757H288.5c-.006.01-.091.373-.188.8l-.119.533a.6.6,0,0,1-.894.421l-.486-.246c-.395-.2-.729-.366-.741-.368l-.008.008-.008.008c0,.012.17.344.373.737l.251.486a.6.6,0,0,1-.414.9l-.533.124c-.432.1-.789.185-.794.189a.041.041,0,0,0-.007.028c0,.006.347.155.757.325l.5.21a.6.6,0,0,1,.26.954l-.327.437c-.266.354-.486.654-.49.665l.007.01.007.009c.012,0,.368-.108.791-.24l.521-.163a.6.6,0,0,1,.812.564l.03.544c.024.443.048.814.052.825l.011,0h.015c.007-.006.209-.317.447-.69l.294-.461a.6.6,0,0,1,.985-.091l.372.4c.3.323.56.593.571.6l.01,0,.01,0c0-.013-.041-.382-.1-.822l-.069-.539a.6.6,0,0,1,.7-.7l.541.065c.44.052.81.094.822.091l0-.009,0-.011c-.006-.011-.277-.265-.6-.566l-.4-.37a.6.6,0,0,1,.082-.985l.456-.3C292.376,675.551,292.69,675.342,292.691,675.336Z" transform="translate(-284.931 -672.422)" fill="#2b2b2b"/>
          <path id="パス_53" data-name="パス 53" d="M292.691,675.336a.045.045,0,0,0-.006-.021c0-.005-.38-.026-.822-.047l-.545-.025a.6.6,0,0,1-.571-.808l.159-.523c.129-.424.234-.776.234-.782s-.014-.019-.02-.021-.308.224-.66.493l-.435.331a.6.6,0,0,1-.957-.252l-.215-.5c-.174-.407-.323-.749-.332-.757H288.5c-.006.01-.091.373-.188.8l-.119.533a.6.6,0,0,1-.894.421l-.486-.246c-.395-.2-.729-.366-.741-.368l-.008.008-.008.008c0,.012.17.344.373.737l.251.486a.6.6,0,0,1-.414.9l-.533.124c-.432.1-.789.185-.794.189a.041.041,0,0,0-.007.028c0,.006.347.155.757.325l.5.21a.6.6,0,0,1,.26.954l-.327.437c-.266.354-.486.654-.49.665l.007.01.007.009c.012,0,.368-.108.791-.24l.521-.163a.6.6,0,0,1,.812.564l.03.544c.024.443.048.814.052.825l.011,0h.015c.007-.006.209-.317.447-.69l.294-.461a.6.6,0,0,1,.985-.091l.372.4c.3.323.56.593.571.6l.01,0,.01,0c0-.013-.041-.382-.1-.822l-.069-.539a.6.6,0,0,1,.7-.7l.541.065c.44.052.81.094.822.091l0-.009,0-.011c-.006-.011-.277-.265-.6-.566l-.4-.37a.6.6,0,0,1,.082-.985l.456-.3C292.376,675.551,292.69,675.342,292.691,675.336Z" transform="translate(-284.931 -672.422)" fill="#2b2b2b"/>
        </g>
      </g>
    </g>
    <g id="グループ_52" data-name="グループ 52" transform="translate(243.184 707.31)">
      <path id="パス_54" data-name="パス 54" d="M263.821,770.742v-.114c.348,0,.276-.087.276-.266l-.3-2.49c0-.252-.116-.307-.276-.307v-.114h1.132v.114c-.334,0-.28.055-.28.3v1.42l1.524-1.415a.205.205,0,0,0,.063-.128c0-.092.11-.174-.206-.174v-.114h.866v.114c-.192,0-.308.087-.513.284l-.9.838,1.115,1.675c.134.22.067.266.379.266v.114h-.936v-.114c.268,0,.285-.018.285-.124a.251.251,0,0,0-.031-.092l-1.012-1.543-.633.6v.9c0,.174-.035.261.317.261v.114Z" transform="translate(-263.525 -767.372)" fill="#2b2b2b"/>
      <path id="パス_55" data-name="パス 55" d="M276.041,772.439a.419.419,0,0,1-.357.225c-.2,0-.241-.151-.241-.312a1.017,1.017,0,0,1-.762.312c-.432,0-.628-.234-.628-.532,0-.407.464-.719,1.391-.865v-.325c0-.274-.129-.458-.4-.458-.339,0-.547.355-.627.588-.036.1-.418-.072-.418-.072,0-.229.483-.626,1.067-.626.388,0,.864.21.864.609l-.221,1.269c0,.138.014.247.085.247a.272.272,0,0,0,.205-.105Zm-.6-1.049c-.6.069-1.1.321-1.1.733,0,.206.152.358.419.358a.836.836,0,0,0,.678-.261Z" transform="translate(-270.147 -769.22)" fill="#2b2b2b"/>
      <path id="パス_56" data-name="パス 56" d="M282.637,772.59v-.11c.223,0,.242-.083.242-.257l-.259-1.341c0-.206-.02-.247-.225-.247l-.018-.078.769-.183v.412a1.169,1.169,0,0,1,.8-.412.523.523,0,0,1,.508.4,1.206,1.206,0,0,1,.8-.4.507.507,0,0,1,.517.5l.3,1.346c0,.174.111.257.316.257v.11h-1.1v-.11c.205,0,.225-.083.225-.257v-1.272a.376.376,0,0,0-.4-.38.973.973,0,0,0-.646.339v1.314c0,.174.024.257.22.257v.11h-.712v-.11c.214,0,.224-.083.224-.257v-1.277a.366.366,0,0,0-.375-.367.863.863,0,0,0-.664.353v1.29c0,.174.011.257.234.257v.11Z" transform="translate(-275.441 -769.22)" fill="#2b2b2b"/>
      <path id="パス_57" data-name="パス 57" d="M296.09,770.608v-.115c.205,0,.294-.042.294-.224v-1.4c0-.119.025-.206-.224-.206l-.014-.068.764-.206-.259,1.877c0,.183.067.224.3.224v.115Zm.669-3.141a.224.224,0,0,1-.236.229.229.229,0,1,1,0-.458A.224.224,0,0,1,296.759,767.467Z" transform="translate(-284.107 -767.238)" fill="#2b2b2b"/>
      <path id="パス_58" data-name="パス 58" d="M337.745,770.608v-.115c.2,0,.294-.042.294-.224v-1.4c0-.119-.049-.206-.3-.206l-.014-.068.839-.206-.259,1.877c0,.183.067.224.3.224v.115Zm.669-3.141a.224.224,0,0,1-.236.229.229.229,0,1,1,0-.458A.224.224,0,0,1,338.414,767.467Z" transform="translate(-310.424 -767.238)" fill="#2b2b2b"/>
      <path id="パス_59" data-name="パス 59" d="M302.559,770.679v-.114c.2,0,.22-.069.22-.266l-.3-2.458c0-.174-.02-.215-.2-.215l-.022-.064.784-.211v2.344l.949-.856a.156.156,0,0,0,.062-.11c0-.078-.12-.124-.3-.124v-.115h.892v.115a.606.606,0,0,0-.46.215l-.562.508.745,1.035a.473.473,0,0,0,.419.2v.114h-.92v-.114c.169,0,.212-.037.212-.124a.194.194,0,0,0-.04-.1l-.593-.847-.405.366v.439c0,.2.089.266.3.266v.114Z" transform="translate(-288.009 -767.309)" fill="#2b2b2b"/>
      <path id="パス_60" data-name="パス 60" d="M314.158,771.524a1.112,1.112,0,0,1-1.127,1.14,1.149,1.149,0,0,1,0-2.29A1.122,1.122,0,0,1,314.158,771.524Zm-1.854,0c0,.531.224,1.03.727,1.03s.722-.5.722-1.03-.223-1.04-.722-1.04S312.3,770.992,312.3,771.524Z" transform="translate(-294.149 -769.22)" fill="#2b2b2b"/>
      <path id="パス_61" data-name="パス 61" d="M322.426,772.091c-.2.3-.113.573-.559.573a1.157,1.157,0,0,1-1.129-1.076,1.253,1.253,0,0,1,1.227-1.214c.325,0,.394.178.394.462,0,0,.063.485,0,.371-.089-.165-.252-.714-.515-.714-.352,0-.669.362-.669,1,0,.581.268.985.767.985.268,0,.14-.092.412-.431Z" transform="translate(-299.686 -769.22)" fill="#2b2b2b"/>
      <path id="パス_62" data-name="パス 62" d="M328.455,770.671v-.114c.213,0,.22-.064.22-.239l-.3-2.436c0-.2,0-.242-.2-.242l-.018-.073.784-.229v1.511a1.22,1.22,0,0,1,.806-.394.517.517,0,0,1,.589.581v1.282c0,.165.093.239.3.239v.114h-.8v-.114c.231,0,.229-.073.229-.239v-1.2c0-.274-.107-.443-.441-.443a.9.9,0,0,0-.686.329v1.314c0,.174.088.239.307.239v.114Z" transform="translate(-304.376 -767.301)" fill="#2b2b2b"/>
    </g>
  </g>
</svg>
